<svg width="32" height="34" viewBox="0 0 32 34" fill="none" xmlns="http://www.w3.org/2000/svg">
<path d="M24.3773 4.26562C24.3773 5.56177 23.2969 6.61201 21.9643 6.61201C21.298 6.61201 20.6949 6.34929 20.2575 5.92479C19.938 5.61418 19.7077 5.21751 19.6072 4.77295M10.0206 28.1L11.864 29.8647L11.401 32.4241C11.3638 32.6299 11.2531 32.8164 11.0885 32.9507C10.9239 33.0851 10.7158 33.1587 10.5008 33.1587H10.327C10.1267 33.1587 9.93189 33.0947 9.77262 32.9766C9.61334 32.8584 9.49841 32.6927 9.4455 32.5049L8.67507 29.7698C8.62411 29.5718 8.63716 29.3633 8.71245 29.1728C8.78774 28.9822 8.92161 28.8188 9.09583 28.7049L10.0206 28.1ZM16.4296 16.507H22.3467L27.761 18.7392C29.1407 19.308 29.6294 20.9689 28.7679 22.1609L25.6167 26.5212L23.5499 25.3447L25.2415 21.7093L20.3302 20.6107C19.6012 20.452 18.922 20.1255 18.3495 19.6589C17.777 19.1922 17.328 18.5988 17.0402 17.9286L16.4296 16.507Z" stroke="#8B8B8B" stroke-miterlimit="10" stroke-linecap="round" stroke-linejoin="round"/>
<path d="M25.6161 26.5244L26.5725 28.6214C26.6418 28.7734 26.6658 28.9411 26.642 29.1057C26.6181 29.2702 26.5472 29.425 26.4374 29.5524C26.113 29.9284 25.5366 29.9777 25.1498 29.6624L22.8858 27.8172C22.4756 27.483 22.4004 26.8977 22.7133 26.4756L23.5495 25.3479L25.6161 26.5244ZM11.0018 16.9962C11.0853 17.013 11.1694 17.0213 11.2522 17.0213C11.7689 17.0213 12.2433 16.7032 12.4148 16.2106L13.8105 12.2205L17.2221 11.8985L16.4292 16.51H22.346L23.5324 9.97243C23.6914 9.09406 22.9965 8.28906 22.079 8.28906H18.9391C18.4826 8.28906 18.0282 8.3451 17.5857 8.45582L13.1593 9.56282C12.7354 9.66891 12.3469 9.87997 12.0318 10.1754C11.7168 10.4709 11.4858 10.8407 11.3615 11.2487L10.0724 15.4873C9.86841 16.1577 10.2977 16.8539 11.0018 16.9962Z" stroke="#8B8B8B" stroke-miterlimit="10" stroke-linecap="round" stroke-linejoin="round"/>
<path d="M16.4285 16.51L15.0193 23.1389L10.0195 28.1034L11.8634 29.8681L17.4323 25.7124C18.2659 25.0904 18.8813 24.2331 19.1943 23.2579L19.3659 22.7227M27.0219 11.1373L25.289 9.58728C24.3554 8.7525 23.1333 8.28915 21.8649 8.28906" stroke="#8B8B8B" stroke-miterlimit="10" stroke-linecap="round" stroke-linejoin="round"/>
<path d="M23.2378 11.5958L26.0331 13.9979C26.3227 14.2468 26.6875 14.3978 27.0727 14.4282C27.458 14.4586 27.843 14.3668 28.1701 14.1666C28.4555 13.9921 28.6842 13.7427 28.8299 13.4473L30.8762 9.30006C31.173 8.69793 30.9087 7.97603 30.2867 7.69208C30.1225 7.61707 29.9434 7.57816 29.762 7.57812C29.3235 7.57812 28.9008 7.80545 28.6769 8.20277M11.0018 16.9975C11.0853 17.0142 11.1694 17.0226 11.2522 17.0226C11.7689 17.0226 12.2432 16.7045 12.4148 16.2118L13.8105 12.2218L13.1594 9.56408C12.7354 9.67017 12.347 9.88123 12.0319 10.1767C11.7168 10.4721 11.4858 10.8419 11.3615 11.25L10.0724 15.4886C9.86837 16.159 10.2976 16.8552 11.0018 16.9975Z" stroke="#8B8B8B" stroke-miterlimit="10" stroke-linecap="round" stroke-linejoin="round"/>
<path d="M27.0228 11.1364L26.0337 13.9956C26.3233 14.2445 26.6881 14.3955 27.0734 14.4259C27.4586 14.4563 27.8437 14.3645 28.1708 14.1643C28.4561 13.9898 28.6848 13.7405 28.8306 13.445L30.8769 9.29779C31.1736 8.69567 30.9093 7.97376 30.2873 7.68981C30.1231 7.6148 29.944 7.5759 29.7626 7.57586C29.3241 7.57586 28.9015 7.80318 28.6775 8.2005L28.1692 9.1023M17.2227 11.8976L17.3558 11.1288M8.64445 19.9874H1M10.9337 22.3459H6.89284M24.3776 4.26814C24.3776 4.26814 26.0728 2.30043 24.9826 1.35832C23.8924 0.416203 21.9088 1.59237 20.3825 1.92207C18.8561 2.25177 19.3172 4.07084 19.6086 4.77747C20.0789 4.77747 20.4816 4.75061 21.0577 4.04741C21.454 3.56364 22.281 3.2958 23.6725 3.05217C23.6725 3.05223 24.1643 2.99619 24.3776 4.26814Z" stroke="#8B8B8B" stroke-miterlimit="10" stroke-linecap="round" stroke-linejoin="round"/>
</svg>
