<svg width="120" height="121" viewBox="0 0 120 121" fill="none" xmlns="http://www.w3.org/2000/svg">
<path d="M60 120.5C93.1371 120.5 120 93.6371 120 60.5C120 27.3629 93.1371 0.5 60 0.5C26.8629 0.5 0 27.3629 0 60.5C0 93.6371 26.8629 120.5 60 120.5Z" fill="#FFCA4F"/>
<path fill-rule="evenodd" clip-rule="evenodd" d="M39.962 71.2807C34.9583 58.6579 24.4485 47.234 37.6731 24.2229C43.1201 14.7465 51.4404 8.49532 60.0349 10.6118C68.6295 8.49532 76.9498 14.7454 82.3968 24.2229C95.6214 47.234 85.1116 58.6579 80.1078 71.2807L60.0349 71.3305L39.962 71.2807Z" fill="#666666"/>
<path fill-rule="evenodd" clip-rule="evenodd" d="M26.226 91.0135C25.5988 92.026 24.032 100.643 22.3008 107.175C32.6034 115.506 45.7157 120.498 59.9968 120.498C74.2779 120.498 87.3913 115.506 97.6928 107.175C95.9604 100.643 94.3947 92.026 93.7675 91.0135C84.128 75.449 69.2706 82.2442 68.2581 64.4336C68.2581 64.4336 63.4788 68.0001 59.829 68.0337C56.1792 68.0661 51.732 64.6592 51.732 64.6592C50.7218 82.4548 35.8598 75.4618 26.2272 91.0135H26.226Z" fill="#FED298"/>
<path fill-rule="evenodd" clip-rule="evenodd" d="M68.519 66.9482C68.3998 66.1682 68.3107 65.3327 68.2598 64.4336C68.2598 64.4336 63.4806 68.0001 59.8307 68.0337C56.1809 68.0661 51.7338 64.6592 51.7338 64.6592C51.6817 65.5746 51.5914 66.4217 51.4688 67.2132C51.5625 67.2873 51.6551 67.3625 51.75 67.4354L51.7488 67.4481C52.03 67.6923 56.3024 71.3676 59.8307 71.3305C63.359 71.3676 67.6315 67.6934 67.9127 67.4481V67.4354C68.1198 67.2768 68.3211 67.1137 68.5202 66.9494L68.519 66.9482Z" fill="#F0BA7D"/>
<path fill-rule="evenodd" clip-rule="evenodd" d="M51.7461 64.6685C52.0273 64.8803 56.2997 68.0638 59.828 68.0313C63.3563 68.0638 67.6288 64.8803 67.91 64.6685C73.2435 61.5591 77.6201 52.3905 76.6318 42.4548C75.8229 34.3161 67.0177 46.2504 60.8857 29.457C52.2067 47.6379 43.9639 36.8828 43.0231 43.7728C41.9874 51.3641 46.2494 60.9157 51.7449 64.6674L51.7461 64.6685Z" fill="#FED298"/>
<path fill-rule="evenodd" clip-rule="evenodd" d="M44.7455 77.3988C39.493 80.205 29.8847 80.2895 26.2279 86.1669C25.5914 87.1911 23.9933 99.7294 22.2344 107.119C32.5474 115.482 45.6863 120.497 59.9986 120.497C74.311 120.497 87.4499 115.482 97.7629 107.119C96.004 99.7306 94.2138 87.2883 93.7694 86.1669C91.3416 80.0442 80.104 79.7884 74.8456 76.9648C66.6711 106.624 54.4869 108.647 44.7467 77.4011L44.7455 77.3988Z" fill="#FF5B62"/>
<path fill-rule="evenodd" clip-rule="evenodd" d="M48.2478 74.4531C47.9064 83.6807 49.4745 96.7536 59.8291 100.095C50.082 100.502 43.7555 86.4568 36.5508 82.7781L48.2478 74.4543V74.4531ZM71.9902 74.4531C72.349 83.6807 70.7011 96.7536 59.8291 100.095C70.0646 100.502 76.707 86.4568 84.2728 82.7781L71.9902 74.4543V74.4531Z" fill="white"/>
</svg>
