<svg width="36" height="35" viewBox="0 0 36 35" fill="none" xmlns="http://www.w3.org/2000/svg">
<path d="M26.6667 3C24.9678 3 23.5706 3.742 22.475 5.226C21.3806 6.709 20.8333 8.467 20.8333 10.5C20.8333 11.66 21.0206 12.832 21.395 14.016C21.7706 15.201 22.165 16.2135 22.5783 17.0535L29.8667 18.645C30.6678 17.478 31.3067 16.2315 31.7833 14.9055C32.26 13.5795 32.4989 12.111 32.5 10.5C32.5 8.348 31.9467 6.56 30.84 5.136C29.7333 3.712 28.3422 3 26.6667 3ZM24.375 25.5C25.8339 25.5 26.995 24.9825 27.8583 23.9475C28.7194 22.9115 29.1556 21.6 29.1667 20.013L22.23 18.525C21.9011 19.027 21.5861 19.5805 21.285 20.1855C20.9839 20.7905 20.8333 21.3995 20.8333 22.0125C20.8333 23.0145 21.1661 23.8465 21.8317 24.5085C22.4972 25.1705 23.345 25.501 24.375 25.5ZM8.33333 10.5C6.65778 10.5 5.26667 11.212 4.16 12.636C3.05334 14.06 2.5 15.848 2.5 18C2.5 19.667 2.75944 21.1735 3.27833 22.5195C3.79722 23.8655 4.47889 25.1505 5.32333 26.3745L12.4867 24.4395C12.8778 23.5985 13.2556 22.6 13.62 21.444C13.9844 20.289 14.1667 19.141 14.1667 18C14.1667 15.967 13.6189 14.209 12.5233 12.726C11.43 11.242 10.0333 10.5 8.33333 10.5ZM10.625 33C11.655 33 12.5028 32.669 13.1683 32.007C13.8339 31.345 14.1667 30.514 14.1667 29.514C14.1667 28.881 14.0056 28.2525 13.6833 27.6285C13.3611 27.0045 13.035 26.432 12.705 25.911L5.84333 27.804C5.89667 29.274 6.35278 30.508 7.21167 31.506C8.07055 32.502 9.20833 33 10.625 33Z" fill="#08E331"/>
</svg>
