<svg width="30" height="32" viewBox="0 0 30 32" fill="none" xmlns="http://www.w3.org/2000/svg">
<path d="M18.4615 0C12.9935 0 8.42308 3.80769 7.23346 8.91577C2.99538 10.6223 0 14.7658 0 19.6154C0 25.9881 5.16577 31.1538 11.5385 31.1538C17.0065 31.1538 21.5769 27.345 22.7654 22.2381C27.0046 20.5315 30 16.3881 30 11.5385C30 5.16577 24.8331 0 18.4615 0ZM11.5385 30C5.81192 30 1.15385 25.3419 1.15385 19.6154C1.15385 15.5204 3.54115 11.9827 6.99231 10.2923C6.94846 10.7019 6.92308 11.1173 6.92308 11.5385C6.92308 17.9112 12.0888 23.0769 18.4615 23.0769C19.5012 23.0769 20.5038 22.9269 21.4638 22.6685C20.1565 26.9088 16.2023 30 11.5385 30ZM21.7615 21.3762C20.6987 21.7369 19.584 21.9216 18.4615 21.9231C12.735 21.9231 8.07692 17.265 8.07692 11.5385C8.07692 10.9373 8.13923 10.3512 8.23846 9.77769C9.30135 9.41694 10.416 9.2322 11.5385 9.23077C17.265 9.23077 21.9231 13.8888 21.9231 19.6154C21.9231 20.2165 21.8608 20.8027 21.7615 21.3762ZM23.0065 20.8615C23.0504 20.4519 23.0769 20.0365 23.0769 19.6154C23.0769 13.2427 17.91 8.07692 11.5385 8.07692C10.4988 8.07692 9.495 8.22692 8.53615 8.48538C9.84346 4.245 13.7977 1.15385 18.4615 1.15385C24.1881 1.15385 28.8462 5.81192 28.8462 11.5385C28.8462 15.6335 26.4588 19.1712 23.0065 20.8615Z" fill="#3EC3CA"/>
</svg>
