<svg width="120" height="121" viewBox="0 0 120 121" fill="none" xmlns="http://www.w3.org/2000/svg">
<path d="M60 120.5C93.1371 120.5 120 93.6371 120 60.5C120 27.3629 93.1371 0.5 60 0.5C26.8629 0.5 0 27.3629 0 60.5C0 93.6371 26.8629 120.5 60 120.5Z" fill="#D1D1D3"/>
<path d="M111.844 90.6875C106.781 99.4062 99.4688 106.812 90.75 111.969C89.5312 112.719 88.3125 113.375 87.0938 114.031C78.9375 118.156 69.75 120.5 60 120.5C50.25 120.5 41.0625 118.156 32.9062 114.031C31.6875 113.375 30.375 112.719 29.25 111.969C20.5313 106.719 13.3125 99.4062 8.25 90.6875C9.75 82.25 15.75 75.3125 23.9063 72.5L42.1875 66.2187L44.8125 65.2812H44.9063L46.875 62.75H72.9375L75.2812 65.2812H75.375L78 66.2187L96.0938 72.4062C104.438 75.3125 110.344 82.25 111.844 90.6875Z" fill="#5E86C3"/>
<path d="M44.5313 51.875C45.0938 56.375 45.6563 61.9063 44.8125 65.4688C45.1875 66.5 45.5625 67.625 45.9375 68.6562C48 74.75 53.7187 76.8125 60.1875 76.8125C66.6562 76.8125 72.375 74.6562 74.4375 68.5625L75.5625 65.4688C74.7188 61.9063 75.375 56.375 75.8438 51.875C76.4063 47.2812 77.0625 44.375 77.25 44.5625C67.875 35.1875 52.5938 35.1875 43.2188 44.5625C43.3125 44.375 44.0625 47.2812 44.5313 51.875Z" fill="#F1B97C"/>
<path d="M83.5377 40.8795C84.2181 37.1615 82.9942 33.8226 80.8042 33.4219C78.6142 33.0211 76.2873 35.7102 75.6069 39.4282C74.9265 43.1462 76.1504 46.485 78.3404 46.8858C80.5304 47.2866 82.8573 44.5974 83.5377 40.8795Z" fill="#F8CFA3"/>
<path d="M81.0938 34.9062C80.8125 37.7188 80.5313 39.5938 80.5313 39.5938C80.0625 41.9375 79.6875 43.9062 79.3125 45.5937C80.5312 45.125 81.8438 43.3437 82.3125 40.625C82.875 37.9062 82.125 35.5625 81.0938 34.9062Z" fill="#F1B97C"/>
<path d="M59.9993 7.8125C37.3118 8.84375 38.3431 26.0938 38.3431 26.0938C38.3431 32.9375 39.4681 39.5938 39.4681 39.5938C42.0931 54.125 43.7806 55.1562 43.7806 55.1562C45.8431 58.1562 48.6556 60.5938 50.9056 62.1875C53.0618 63.7813 55.7806 64.7188 58.4056 64.7188H61.4993C64.2181 64.7188 66.8431 63.875 68.9993 62.1875C71.2493 60.5 73.9681 58.1562 76.1243 55.1562C76.1243 55.1562 77.8119 54.125 80.4368 39.5938C80.4368 39.5938 81.5618 32.8438 81.5618 26.0938C81.5618 26.0938 82.5931 8.84375 59.9993 7.8125Z" fill="#F8CFA3"/>
<path d="M41.5464 46.8828C43.7364 46.4821 44.9603 43.1432 44.2799 39.4252C43.5995 35.7073 41.2726 33.0181 39.0826 33.4189C36.8926 33.8197 35.6687 37.1585 36.3491 40.8765C37.0295 44.5945 39.3564 47.2836 41.5464 46.8828Z" fill="#F8CFA3"/>
<path d="M38.8142 34.9062C39.0955 37.7188 39.3767 39.5938 39.3767 39.5938C39.8455 41.9375 40.2205 43.9062 40.5955 45.5937C39.3767 45.125 38.0642 43.3437 37.5955 40.625C37.1267 37.9062 37.783 35.5625 38.8142 34.9062Z" fill="#F1B97C"/>
<path d="M60.375 77L60.2812 76.9062L60.375 76.8125V77Z" fill="#5E86C3"/>
<path d="M78.1875 66.2188V66.3125C77.8125 67.25 77.4375 68.2813 77.1563 69.4063C75.9375 72.9688 73.6875 75.6875 70.3125 77.375C67.5938 78.7813 64.2188 79.5313 60.2813 79.5313C51.6563 79.5313 45.6563 75.9688 43.4063 69.5C43.0313 68.2813 42.6562 67.3438 42.2812 66.4063V66.2188L44.9063 65.2812V65.375C45.2813 66.4062 45.6562 67.5313 46.0312 68.5625C48.0938 74.6563 53.8125 76.7188 60.2813 76.7188C66.75 76.7188 72.4688 74.5625 74.5312 68.4688L75.6562 65.375V65.2812L78.1875 66.2188Z" fill="#E7E7E8"/>
<path d="M32.9062 114.031C31.6875 113.375 30.375 112.719 29.25 111.969V100.906L32.9062 114.031ZM90.8437 100.906V111.969C89.625 112.719 88.4062 113.375 87.1875 114.031L90.8437 100.906Z" fill="#4C5AA5"/>
<path d="M39.5636 40.2484H40.0323C40.1261 37.3422 40.7823 25.9984 43.8761 22.9984C43.8761 22.9984 54.4698 32.5609 78.5636 29.0922C78.2823 33.4984 78.7511 37.1547 79.6886 40.2484H80.4386C80.6261 38.0922 81.2823 32.6547 82.9698 28.7172C84.2823 25.6234 84.6573 22.1547 83.7198 18.8734C82.0323 13.6234 76.9698 7.52969 62.0636 6.02969C58.3136 5.65469 54.5636 5.93594 51.0011 6.96719C46.6886 8.27969 41.7198 10.9984 40.0323 16.7172C40.0323 16.7172 31.5948 19.7172 39.0011 37.3422L39.5636 40.2484Z" fill="#4C525E"/>
<path d="M44.8125 14.3747C44.8125 14.3747 45 14.281 45.2813 14.0935C48.2813 12.3122 52.2188 10.9997 56.5312 10.6247C48.9375 11.5622 44.625 15.3122 44.625 15.3122C44.625 15.3122 49.3125 11.656 58.3125 11.1872C52.2188 11.8435 48.6563 14.4685 48.6563 14.4685C48.6563 14.4685 53.1562 12.3122 55.125 12.3122C51 13.156 47.25 15.5935 48.8437 14.7497C51.75 13.3435 55.4063 12.4997 59.4375 12.406C52.4063 12.6872 48.1875 15.781 48.1875 15.781C48.1875 15.781 52.9688 12.6872 60.9375 12.9685C50.5313 13.156 46.2188 17.3747 46.2188 17.3747C46.2188 17.3747 48.75 15.4997 54 14.281C52.7812 14.7497 50.0625 15.406 47.3438 17.1872C46.4063 17.7497 46.0312 18.2185 46.0312 18.2185C48.4687 16.4372 53.0625 14.656 58.0313 14.4685C52.6875 15.1247 49.5938 17.5622 49.5938 17.5622C49.5938 17.4685 52.0312 16.4372 52.125 16.4372C54 15.781 55.3125 15.5935 55.3125 15.5935C51.375 16.531 49.5 18.031 49.5 18.031C49.5 18.031 49.5938 17.9372 49.875 17.8435C52.6875 16.4372 55.9687 15.781 59.1562 15.6872C52.875 15.9685 49.3125 18.8747 49.3125 18.8747C49.3125 18.8747 53.625 16.156 60.5625 16.4372C55.5 16.6247 52.6875 18.6872 52.6875 18.6872C52.6875 18.6872 52.7813 18.5935 52.9688 18.5935C59.1562 15.9685 67.4062 17.3747 73.5938 22.4372C73.7812 22.6247 75.9375 24.5935 76.0312 24.781C76.0312 24.781 74.5313 21.8747 70.5938 19.4372C75.4688 21.781 77.8125 25.3435 77.8125 25.3435C77.8125 25.3435 76.125 21.8747 71.9062 19.156C77.0625 22.6247 78.5625 25.2497 78.5625 25.2497C78.5625 25.2497 76.2188 20.1872 69.375 16.906C74.9062 18.9685 77.9062 22.6247 77.9062 22.6247C77.9062 22.6247 76.2188 19.9997 72.9375 17.8435C76.2188 19.8122 78.4687 22.531 78.4687 22.531L77.9062 21.6872L78.6562 22.4372C78.6562 22.4372 76.6875 19.156 72.5625 16.7185C78.5625 19.7185 79.5 22.7185 80.4375 23.281C80.4375 23.281 78.4687 19.3435 73.7812 16.3435C78.8437 19.4372 81.2812 23.1872 81.2812 23.1872C81.2812 23.1872 78.75 17.656 70.9687 13.8122C77.25 16.2497 80.5312 20.3747 80.5312 20.3747L79.6875 19.2497C77.7188 16.906 75.375 14.9372 72.4688 13.4372C73.4063 13.906 76.7812 15.406 80.3437 19.156C81 19.8122 81.2812 20.1872 81.2812 20.1872C81.2812 20.1872 78.6563 15.8747 72.9375 12.8747C57.4688 4.71849 44.8125 14.3747 44.8125 14.3747Z" fill="#535963"/>
</svg>
