<svg width="102" height="88" viewBox="0 0 102 88" fill="none" xmlns="http://www.w3.org/2000/svg">
<path d="M51.6853 76.9112C65.28 76.7578 89.0485 74.5316 85.5462 61.6084C82.0439 48.6852 75.0787 48.0625 85.6986 38.3181C95.1397 29.6553 89.81 19.9983 81.5872 18.1521C75.548 16.7963 69.5975 16.4383 67.4613 9.39424C64.4357 -0.582189 52.2512 -2.7037 45.0942 4.25499C37.9372 11.2137 32.8279 10.379 25.702 7.64314C16.3521 4.05346 4.72338 10.4372 11.2736 21.9908C16.244 30.7578 21.8223 38.275 12.5702 42.5483C1.22457 47.7883 4.72641 56.7538 10.4744 61.0406C17.4325 66.2297 15.0851 71.1097 12.0946 75.235C9.10383 79.3603 40.6272 77.0362 51.6853 76.9112Z" fill="#F1F8FE"/>
<path d="M64.4785 12.5842C63.7674 9.80496 65.6067 7.01437 68.5868 6.35121C71.5668 5.68806 74.559 7.40345 75.2701 10.1827C75.9812 12.9619 74.1418 15.7524 71.1618 16.4156C68.1818 17.0788 65.1895 15.3634 64.4785 12.5842Z" fill="#F1F8FE"/>
<path d="M79.2423 13.1039C79.2423 13.9294 79.9599 14.5984 80.8448 14.5984C81.7299 14.5984 82.4473 13.9294 82.4473 13.1039C82.4473 12.2784 81.7297 11.6094 80.8448 11.6094C79.9596 11.6094 79.2423 12.2786 79.2423 13.1039Z" fill="#F1F8FE"/>
<path d="M40.4054 5.23796C39.688 4.47349 39.7709 3.31138 40.5906 2.6423C41.4103 1.97323 42.6564 2.05056 43.3738 2.81503C44.0913 3.5795 44.0083 4.74161 43.1886 5.41069C42.3689 6.07976 41.1228 6.00243 40.4054 5.23796Z" fill="#F1F8FE"/>
<path d="M27.2165 9.72339C25.7487 9.21463 25.001 7.69252 25.5466 6.32366C26.0921 4.9548 27.7242 4.25755 29.192 4.76631C30.6597 5.27507 31.4074 6.79718 30.8619 8.16604C30.3163 9.5349 28.6842 10.2322 27.2165 9.72339Z" fill="#F1F8FE"/>
<path d="M23.7702 1.37938C23.3618 1.37938 23.0307 1.07059 23.0307 0.689688C23.0307 0.308784 23.3618 0 23.7702 0C24.1787 0 24.5098 0.308784 24.5098 0.689688C24.5098 1.07059 24.1787 1.37938 23.7702 1.37938Z" fill="#F1F8FE"/>
<path d="M28.7014 2.52975C28.4971 2.52975 28.3315 2.37531 28.3315 2.1848C28.3315 1.99428 28.4971 1.83984 28.7014 1.83984C28.9057 1.83984 29.0713 1.99428 29.0713 2.1848C29.0713 2.37531 28.9057 2.52975 28.7014 2.52975Z" fill="#F1F8FE"/>
<path d="M11.8143 27.2491C10.2485 27.2491 8.97917 26.0653 8.97917 24.605C8.97917 23.1447 10.2485 21.9609 11.8143 21.9609C13.3801 21.9609 14.6494 23.1447 14.6494 24.605C14.6494 26.0653 13.3801 27.2491 11.8143 27.2491Z" fill="#F1F8FE"/>
<path d="M85.6991 42.4245C83.2683 42.4245 81.2977 40.5867 81.2977 38.3197C81.2977 36.0526 83.2683 34.2148 85.6991 34.2148C88.13 34.2148 90.1006 36.0526 90.1006 38.3197C90.1006 40.5867 88.13 42.4245 85.6991 42.4245Z" fill="#F1F8FE"/>
<path d="M95.3899 36.2166C95.3899 36.7246 95.8314 37.1363 96.3761 37.1363C96.9208 37.1363 97.3623 36.7246 97.3623 36.2166C97.3623 35.7086 96.9208 35.2969 96.3761 35.2969C95.8314 35.2969 95.3899 35.7086 95.3899 36.2166Z" fill="#F1F8FE"/>
<path d="M94.7739 44.4921C93.7526 44.4921 92.9247 43.72 92.9247 42.7675C92.9247 41.8151 93.7526 41.043 94.7739 41.043C95.7951 41.043 96.623 41.8151 96.623 42.7675C96.623 43.72 95.7951 44.4921 94.7739 44.4921Z" fill="#F1F8FE"/>
<path d="M7.19481 61.7097C6.86843 60.4768 7.67554 59.2306 8.99756 58.9262C10.3196 58.6218 11.6559 59.3745 11.9823 60.6074C12.3087 61.8404 11.5015 63.0866 10.1795 63.391C8.85749 63.6954 7.5212 62.9427 7.19481 61.7097Z" fill="#F1F8FE"/>
<path d="M1.33524 57.369C1.33524 57.8769 1.77676 58.2887 2.32143 58.2887C2.8661 58.2887 3.30762 57.8769 3.30762 57.369C3.30762 56.861 2.8661 56.4492 2.32143 56.4492C1.77676 56.4492 1.33524 56.861 1.33524 57.369Z" fill="#F1F8FE"/>
<path d="M3.55496 61.9705C3.55496 62.4785 3.99648 62.8902 4.54115 62.8902C5.08582 62.8902 5.52734 62.4785 5.52734 61.9705C5.52734 61.4626 5.08582 61.0508 4.54115 61.0508C3.99648 61.0508 3.55496 61.4626 3.55496 61.9705Z" fill="#F1F8FE"/>
<path d="M3.55372 41.5069C3.55372 42.2053 4.16093 42.7715 4.90979 42.7715C5.65865 42.7715 6.26563 42.2053 6.26563 41.5069C6.26562 40.8085 5.65865 40.2422 4.90979 40.2422C4.16093 40.2422 3.55372 40.8085 3.55372 41.5069Z" fill="#F1F8FE"/>
<path d="M92.6798 7.70171C91.5224 7.70171 90.5842 6.82671 90.5842 5.74734C90.5842 4.66797 91.5224 3.79297 92.6798 3.79297C93.8372 3.79297 94.7754 4.66797 94.7754 5.74734C94.7754 6.82671 93.8372 7.70171 92.6798 7.70171Z" fill="#F1F8FE"/>
<path d="M96.4437 76.8779C97.4295 73.6186 93.0385 70.6934 89.9915 72.6155C90.4396 70.2755 88.0201 70.5262 87.3032 71.947C85.7798 67.016 79.3275 66.9324 77.7145 70.0248C76.2807 67.0162 74.9366 68.3533 74.847 70.0248C72.1586 67.1833 66.8713 67.9355 66.1544 71.1112C64.3622 69.6905 60.7775 70.2755 60.6879 71.8634C58.2684 70.1919 54.6837 74.287 54.6837 74.287C54.6837 74.287 93.6658 76.3765 96.4437 76.8779Z" fill="#D4E3CF"/>
<path d="M46.6191 74.708C45.9919 70.2784 40.615 69.777 37.837 71.6993C37.2993 66.9355 29.951 65.4312 28.6964 69.3593C23.947 65.515 23.4091 68.7743 23.6782 70.8636C20.0041 68.7743 20.0042 71.6158 20.273 72.4515C17.3158 69.8608 10.774 72.4515 10.0571 74.5408C7.18951 72.6186 7.36873 74.2065 7.54795 74.8751C5.93495 74.7915 5.93495 77.2151 5.93495 77.2151L46.6191 74.708Z" fill="#D4E3CF"/>
<path d="M51 82.7936C22.8335 82.7936 -1.54972e-06 80.8102 -1.54972e-06 78.3636C-1.54972e-06 75.917 22.8335 73.9336 51 73.9336C79.1665 73.9336 102 75.917 102 78.3636C102 80.8102 79.1665 82.7936 51 82.7936Z" fill="#BED6B3"/>
<path d="M18.8397 84.3848C14.8534 84.3848 11.6218 83.6533 11.6218 82.751C11.6218 81.8487 14.8534 81.1172 18.8397 81.1172C22.8261 81.1172 26.0576 81.8487 26.0576 82.751C26.0576 83.6533 22.8261 84.3848 18.8397 84.3848Z" fill="#BED6B3"/>
<path d="M28.1615 84.3879C28.1615 84.7488 28.9773 85.0415 29.9836 85.0415C30.9898 85.0415 31.8057 84.7488 31.8057 84.3879C31.8057 84.0269 30.9898 83.7344 29.9836 83.7344C28.9771 83.7344 28.1615 84.0269 28.1615 84.3879Z" fill="#BED6B3"/>
<path d="M84.0094 84.776C79.249 84.776 75.3899 83.7226 75.3899 82.4232C75.3899 81.1237 79.249 80.0703 84.0094 80.0703C88.7698 80.0703 92.6289 81.1237 92.6289 82.4232C92.6289 83.7226 88.7698 84.776 84.0094 84.776Z" fill="#BED6B3"/>
<path d="M78.5471 86.8674C77.0764 86.8674 75.8842 86.5456 75.8842 86.1485C75.8842 85.7515 77.0764 85.4297 78.5471 85.4297C80.0177 85.4297 81.21 85.7515 81.21 86.1485C81.21 86.5456 80.0177 86.8674 78.5471 86.8674Z" fill="#BED6B3"/>
<path d="M70.0668 84.2515C70.0668 84.4681 70.5375 84.6437 71.1179 84.6437C71.6983 84.6437 72.1689 84.4681 72.1689 84.2515C72.1689 84.035 71.6983 83.8594 71.1179 83.8594C70.5375 83.8594 70.0668 84.035 70.0668 84.2515Z" fill="#BED6B3"/>
<path d="M48.6226 82.9489C48.6226 83.6346 50.4737 84.1907 52.7571 84.1907C55.0406 84.1907 56.8916 83.6346 56.8916 82.9489C56.8916 82.2631 55.0406 81.707 52.7571 81.707C50.4737 81.7072 48.6226 82.2631 48.6226 82.9489Z" fill="#BED6B3"/>
<path d="M86.1122 86.9985C84.835 86.9985 83.7996 86.7059 83.7996 86.345C83.7996 85.984 84.835 85.6914 86.1122 85.6914C87.3894 85.6914 88.4248 85.984 88.4248 86.345C88.4248 86.7059 87.3894 86.9985 86.1122 86.9985Z" stroke="#BED6B3" stroke-miterlimit="10"/>
<path d="M95.8537 82.5549C94.5378 82.5549 93.4711 82.2331 93.4711 81.836C93.4711 81.439 94.5378 81.1172 95.8537 81.1172C97.1696 81.1172 98.2363 81.439 98.2363 81.836C98.2363 82.2331 97.1696 82.5549 95.8537 82.5549Z" stroke="#BED6B3" stroke-miterlimit="10"/>
<path d="M8.60625 83.0125C7.36782 83.0125 6.36387 82.7491 6.36387 82.4242C6.36387 82.0993 7.36782 81.8359 8.60625 81.8359C9.84468 81.8359 10.8486 82.0993 10.8486 82.4242C10.8486 82.7491 9.84468 83.0125 8.60625 83.0125Z" stroke="#BED6B3" stroke-miterlimit="10"/>
<path d="M46.0288 85.2971C44.829 85.2971 43.8564 84.9752 43.8564 84.5782C43.8564 84.1812 44.829 83.8594 46.0288 83.8594C47.2286 83.8594 48.2012 84.1812 48.2012 84.5782C48.2012 84.9752 47.2286 85.2971 46.0288 85.2971Z" stroke="#BED6B3" stroke-miterlimit="10"/>
<path d="M27.6065 78.8199C16.6493 78.8199 7.76671 78.2428 7.76671 77.531C7.76671 76.8192 16.6493 76.2422 27.6065 76.2422C38.5637 76.2422 47.4463 76.8192 47.4463 77.531C47.4463 78.2428 38.5637 78.8199 27.6065 78.8199Z" fill="#94B38A"/>
<path d="M32.3637 37.4527C32.1714 39.0632 31.2802 44.6852 31.2802 44.6852C32.0104 45.4152 33.2692 45.3366 33.2692 45.3366C34.0971 43.8203 35.5743 40.1136 35.6278 37.0545C35.6539 35.563 32.626 35.2581 32.3637 37.4527Z" fill="#EDC88F"/>
<path d="M30.1726 46.7967C29.838 47.4146 29.7117 47.8568 30.0478 48.106C30.3838 48.3554 31.8748 48.3918 32.395 48.0734C32.9151 47.755 33.3167 47.1299 33.1165 46.7737C32.9163 46.4174 30.1726 46.7967 30.1726 46.7967Z" fill="#E8BC8A"/>
<path d="M32.4248 44.4863C32.4248 44.4863 31.0624 43.9871 30.0832 46.0605C30.0832 46.0605 29.6861 46.6984 30.1134 46.9839C30.1134 46.9839 30.6667 47.3855 31.2848 47.6704C31.678 47.816 31.8603 47.0427 31.3952 46.6779C33.0164 46.5539 33.0348 47.3526 33.4182 46.7075C33.8016 46.0627 33.782 44.8461 32.4248 44.4863Z" fill="#EDC88F"/>
<path d="M35.0296 35.9957C34.4031 35.4605 32.0645 33.8213 30.989 33.2831C30.1204 32.8484 27.973 34.7112 29.7174 36.037C31.244 37.1975 31.911 37.592 32.7985 38.2001C34.0848 39.0815 36.2688 37.0536 35.0296 35.9957Z" fill="#EDC88F"/>
<path d="M17.0055 75.7321C17.0055 75.7321 20.3064 61.6454 20.3986 60.6427C20.4908 59.6401 19.6212 58.5375 18.4264 58.472C17.2316 58.4065 16.3966 59.3286 16.2039 60.7317C16.0111 62.1348 14.7211 75.1166 14.7211 75.1166C14.8147 75.1701 15.2996 76.78 17.0055 75.7321Z" fill="#EDC88F"/>
<path d="M17.1394 75.2258C17.1394 75.2258 17.4528 76.0876 16.98 77.2726L10.4631 76.1022C10.4631 76.1022 10.1303 75.0632 12.0948 75.2366C13.3664 75.3489 14.7056 74.4453 14.7056 74.4453C14.7056 74.4453 15.0655 74.5472 15.1346 75.0068C15.2111 75.5159 16.2206 75.8271 16.6995 75.3816C17.0038 75.0987 17.1394 75.2258 17.1394 75.2258Z" fill="black"/>
<path d="M10.4293 76.1019L16.9961 77.2812L16.9074 77.7106L10.3407 76.5313L10.4293 76.1019Z" fill="#E3E8F0"/>
<path d="M42.9145 52.7734C42.9145 52.7734 31.438 58.2764 30.5229 58.81C29.3991 59.4655 28.8635 60.6506 29.5384 61.5725C30.2133 62.4944 31.5061 62.5468 32.8146 61.8312C34.123 61.1156 44.0043 54.6399 44.0043 54.6399C43.9929 54.538 44.847 53.3917 42.9145 52.7734Z" fill="#EDC88F"/>
<path d="M42.6874 52.7741C42.6874 52.7741 43.146 51.971 44.3959 51.4805L47.9453 56.7103C47.9453 56.7103 47.3614 57.6481 46.1515 56.1945C45.3683 55.2536 43.7448 54.9624 43.7448 54.9624C43.7448 54.9624 43.5779 54.6482 43.8897 54.2865C44.2351 53.8858 43.7868 52.9867 43.1107 52.9665C42.6811 52.9534 42.6874 52.7741 42.6874 52.7741Z" fill="black"/>
<path d="M44.7794 51.2226L48.3555 56.4922L47.9599 56.7257L44.3838 51.4561L44.7794 51.2226Z" fill="#E3E8F0"/>
<path d="M29.2073 61.861C26.5874 59.1109 23.9525 55.2359 22.0471 52.7538C20.6989 50.9977 20.0644 48.8807 22.4646 47.4437C24.8649 46.0066 26.7888 47.7266 27.8564 49.595C28.9238 51.4634 31.4875 56.0203 32.2357 57.6177C32.554 58.8702 30.7445 61.7883 29.2073 61.861Z" fill="#326B99"/>
<path d="M22.7008 31.4068C23.1507 30.1872 24.2951 29.4405 25.5966 30.0472C28.6049 31.4492 33.3809 34.1277 33.3809 34.1277C32.8929 35.622 32.0526 36.8101 30.7229 37.5733C30.7229 37.5733 28.2576 36.5702 25.8934 35.2971C24.1231 34.3436 22.0513 33.1668 22.7008 31.4068Z" fill="#FFC533"/>
<path d="M15.8121 60.8112C16.3836 57.8653 17.8141 53.4092 18.9683 47.9924C19.5235 45.3867 22.9829 46.4013 25.1935 47.5913C26.642 48.3711 27.0837 48.8453 26.014 51.0509C25.0785 52.9798 22.0058 59.012 20.4572 61.8291C18.9088 62.492 16.1166 61.5925 15.8121 60.8112Z" fill="#326B99"/>
<path d="M28.8193 47.9856C28.7661 50.2444 27.386 51.0118 26.4915 51.2414C23.1533 52.098 20.3966 50.9546 19.4643 49.9883C18.189 48.6666 18.6858 47.3281 18.6858 47.3281L28.8193 47.9856Z" fill="#326B99"/>
<path d="M24.4533 29.4093C22.9742 29.0265 22.1488 29.5813 21.7369 29.7508C21.325 29.9201 20.1552 30.4888 19.7634 34.5765C19.4778 37.5555 18.2386 47.1508 18.2386 47.1508C18.2386 47.1508 18.9118 48.3522 22.5539 48.6936C26.196 49.0351 28.4258 48.7948 28.9569 48.3615C28.9716 37.8739 27.2595 33.774 26.7246 32.2336C26.2079 30.7472 25.3043 29.6296 24.4533 29.4093Z" fill="#FFC533"/>
<path d="M15.0857 37.3559C13.7732 36.2938 8.55944 31.5234 8.55944 31.5234C7.50068 31.6697 6.85543 32.6808 6.85543 32.6808C7.72377 34.1773 10.9145 38.3102 13.5844 40.0881C14.8859 40.9547 16.8742 38.8031 15.0857 37.3559Z" fill="#EDC88F"/>
<path d="M8.08128 32.5138C8.08128 32.5138 9.29547 31.7512 8.02108 29.8223C8.02108 29.8223 7.68341 29.1553 7.18891 29.3211C7.18891 29.3211 6.55416 28.1013 6.03003 28.6282C6.03003 28.6282 4.43849 30.1314 5.06787 31.0753C5.69702 32.0191 6.75718 33.3317 8.08128 32.5138Z" fill="#EDC88F"/>
<path d="M15.2314 40.1665C15.9971 39.8233 18.6724 38.3062 19.5731 37.5381C20.3005 36.9179 19.0831 34.1082 17.1639 35.2042C15.4844 36.1633 14.3841 36.6461 13.4749 37.2256C12.1571 38.0655 13.154 41.0978 15.2314 40.1665Z" fill="#EDC88F"/>
<path d="M18.1465 38.9128C19.8645 38.0525 22.2196 36.4527 23.2891 35.7876C25.7447 34.2602 25.6831 32.735 25.1401 31.9187C24.5968 31.1023 22.7719 30.8461 20.7538 32.2703C19.8005 32.9431 17.0401 34.7647 15.8373 35.6744C16.1953 36.4261 17.126 38.049 18.1465 38.9128Z" fill="#FFC533"/>
<path d="M24.6328 29.8399L24.111 24.9766L21.0726 25.16L21.5821 30.1659C22.2674 30.6721 23.9439 30.2721 24.6328 29.8399Z" fill="#D99F5E"/>
<path d="M24.444 27.8756C24.444 27.8756 19.2825 30.0169 18.182 28.7365C18.0161 28.5435 17.7036 26.1723 17.6866 26.0004C17.5314 24.4278 17.8229 21.8638 18.2422 20.83C19.37 18.0497 22.4448 16.434 24.5642 17.4976C26.6829 18.5614 31.1523 22.0762 24.444 27.8756Z" fill="#EAC180"/>
<path d="M18.8319 23.1204C18.8361 23.1185 18.8379 23.1182 18.8438 23.1161L18.7721 22.8242C18.0513 23.3783 17.2494 23.7307 16.5038 24.1218C17.6636 25.5619 19.2451 24.648 19.1786 23.093C19.0426 23.076 18.907 23.1017 18.8319 23.1204C18.745 23.1511 18.7595 23.1389 18.8319 23.1204Z" fill="#EAC180"/>
<path d="M23.665 17.2383L23.6543 17.267C23.6535 17.2498 23.6582 17.2415 23.665 17.2383Z" fill="#805936"/>
<path d="M23.94 24.4318C24.0579 25.4885 23.9321 27.6333 24.7181 28.0472C25.8685 27.2184 27.4787 25.9503 28.2509 24.784C29.0031 23.6486 29.8257 21.2084 28.1277 19.5189C26.5425 17.6692 25.8671 17.3012 24.8936 17.1706C24.1069 17.0653 22.5296 16.9789 21.5602 17.331C21.1131 17.4932 20.6541 17.7241 20.2741 17.9896C20.0541 18.1435 19.7493 18.6242 19.5052 18.8915L19.6259 18.8012C20.2293 19.3233 21.9443 18.4725 22.3165 19.1792C22.7489 19.9973 21.9095 22.2899 22.2211 23.1482C22.4876 23.8817 23.5239 23.4964 23.94 24.4318Z" fill="black"/>
<path d="M24.4414 24.5021C24.1471 25.1787 23.2776 25.8536 22.8008 25.6729C22.3241 25.4923 22.1756 24.7978 22.4699 24.1212C22.7642 23.4448 23.394 22.6123 24.0131 22.8852C24.4778 23.0905 24.7354 23.8254 24.4414 24.5021Z" fill="#EAC180"/>
<path d="M20.289 26.2305C20.302 26.2842 20.3006 26.3367 20.292 26.388C20.2885 26.4392 20.2747 26.489 20.2579 26.5358C20.2232 26.6294 20.1671 26.7106 20.088 26.7639C20.0108 26.8196 19.9109 26.8501 19.8031 26.8618C19.6953 26.8777 19.5821 26.8701 19.4629 26.8727C19.5158 26.8971 19.5716 26.9158 19.6283 26.935C19.6871 26.9434 19.7455 26.9617 19.8075 26.9606C19.9298 26.9717 20.0638 26.9402 20.1713 26.8662C20.2773 26.7904 20.3466 26.6747 20.3606 26.5582C20.3748 26.4442 20.3657 26.3206 20.289 26.2305Z" fill="#864E26"/>
<path d="M18.5497 21.2305C18.093 22.1563 17.4673 23.7561 18.9994 23.8086C20.2052 23.8497 20.3916 22.0834 20.3916 22.0834C20.3916 22.0834 19.2428 21.3319 18.5497 21.2305Z" fill="url(#paint0_linear_171_438)"/>
<path d="M18.0999 23.3116C18.1228 23.4171 18.2329 23.4851 18.3456 23.4637C18.4586 23.4423 18.5314 23.3397 18.5085 23.2342C18.4856 23.1287 18.3757 23.0607 18.2628 23.082C18.1501 23.1034 18.077 23.2063 18.0999 23.3116Z" fill="#3C3C55"/>
<path d="M18.7229 21.2214C20.1513 21.6203 20.8731 22.2906 20.1706 22.1207C19.093 21.8597 18.0716 21.0395 18.7229 21.2214Z" fill="#3C3C55"/>
<path d="M25.4527 17.4081C19.2397 16.6917 19.042 14.7813 19.042 14.7813C16.7957 17.4427 17.7903 18.8375 18.4719 19.4961C20.108 21.0777 23.8287 19.9697 24.7468 21.7737C25.2091 22.6821 24.4206 27.5386 24.4206 27.5386C24.4206 27.5386 28.1733 23.8882 28.0995 21.8287C28.0454 20.3173 25.4527 17.4081 25.4527 17.4081Z" fill="black"/>
<path d="M28.5398 19.1121C28.1603 18.9896 27.9902 19.1039 27.9902 19.1039C28.4865 18.7983 28.6445 18.1267 28.6445 18.1267C27.7522 18.155 27.5309 18.6984 27.5309 18.6984C27.5671 17.8773 26.6488 17.1641 26.6488 17.1641C26.3751 17.7223 26.6815 18.5809 26.7055 18.6142L26.8096 19.641L28.0138 20.0262L28.1664 19.5093C28.4844 19.3578 28.5398 19.1121 28.5398 19.1121Z" fill="black"/>
<path d="M73.5225 78.8199C62.5653 78.8199 53.6827 78.2428 53.6827 77.531C53.6827 76.8192 62.5653 76.2422 73.5225 76.2422C84.4797 76.2422 93.3623 76.8192 93.3623 77.531C93.3623 78.2428 84.4797 78.8199 73.5225 78.8199Z" fill="#94B38A"/>
<path d="M72.2393 20.5977C75.7172 22.1531 76.4494 25.5106 74.9552 29.5492C73.4874 33.5165 75.5725 38.1968 78.167 40.0826C76.6364 42.4067 72.7292 42.8076 71.1771 41.6968C69.435 39.8332 70.021 30.2479 70.8921 27.3807C71.7633 24.5136 72.2393 20.5977 72.2393 20.5977Z" fill="black"/>
<path d="M62.9188 73.6753L63.1836 75.75L61.2769 75.9617L61.0121 73.887L62.9188 73.6753Z" fill="#EDC88F"/>
<path d="M63.0732 74.6133C63.0732 74.6133 63.8764 75.6114 63.815 76.8205L57.5072 77.5209C57.5072 77.5209 56.8982 76.7348 58.7251 76.2889C60.6884 75.8098 61.115 74.7789 61.115 74.7789C61.7358 74.8834 62.3864 74.8379 63.0732 74.6133Z" fill="#828282"/>
<path d="M63.8347 76.8188L63.8877 77.2344L57.5319 77.9399L57.4789 77.5244L63.8347 76.8188Z" fill="#E3E8F0"/>
<path d="M57.0588 60.0885C58.2622 57.4521 61.4159 52.0316 65.3238 47.1307C66.2103 46.0188 68.2928 46.3953 69.6134 47.7248C71.061 49.1821 70.5721 51.0277 69.5094 52.4473C67.7897 54.7445 62.1545 60.0463 60.4701 61.9376C58.9898 63.5992 56.0537 62.2899 57.0588 60.0885Z" fill="black"/>
<path d="M63.0635 74.2937C61.601 66.6669 62.2126 63.1692 60.9546 60.2412C60.5705 59.3469 59.5892 58.5323 58.4791 58.7967C57.369 59.0611 56.6803 60.3193 56.9421 61.6512C57.204 62.9832 60.991 74.4338 60.991 74.4338C61.0932 74.4573 62.2245 74.5135 63.0635 74.2937Z" fill="black"/>
<path d="M89.26 53.228L90.0791 54.8477L88.0528 55.739L87.2337 54.1193L89.26 53.228Z" fill="#EDC88F"/>
<path d="M88.1455 53.6831C88.1455 53.6831 88.9062 52.6565 90.1557 52.3281L92.8652 57.6863C92.8652 57.6863 92.2585 58.4742 91.2266 56.999C90.1179 55.414 88.934 55.3628 88.934 55.3628C88.8435 54.7809 88.5914 54.2196 88.1455 53.6831Z" fill="#828282"/>
<path d="M90.5459 52.1361L93.2764 57.5352L92.8711 57.7134L90.1407 52.3144L90.5459 52.1361Z" fill="#E3E8F0"/>
<path d="M87.8184 53.793C80.5244 57.5017 76.7731 58.0682 74.1935 60.1083C73.4057 60.7314 72.8878 61.8573 73.5081 62.7554C74.1286 63.6536 75.6264 63.8645 76.898 63.2112C78.1695 62.5578 88.6172 55.5819 88.6172 55.5819C88.6086 55.4842 88.3075 54.4657 87.8184 53.793Z" fill="black"/>
<path d="M73.2984 62.7363C71.708 60.7328 66.8072 53.04 65.5318 50.3709C64.3767 47.9534 66.9589 47.3416 68.9373 47.5053C70.5025 47.6348 72.1892 47.9934 72.9236 49.8039C73.6923 51.6993 75.9527 58.6946 76.8989 61.3182C77.6261 63.3342 74.9212 64.7808 73.2984 62.7363Z" fill="black"/>
<path d="M66.6056 41.7543C65.7413 42.8011 61.8259 46.9867 61.8259 46.9867C62.004 47.7835 62.9171 48.2253 62.9171 48.2253C64.1819 47.4949 67.6371 44.8756 69.0615 42.7641C69.7563 41.7343 67.7834 40.3275 66.6056 41.7543Z" fill="#EAC180"/>
<path d="M60.0924 48.0273C59.579 48.3262 59.2903 48.5847 59.4117 48.8909C59.533 49.1974 60.5559 49.8107 61.0627 49.7939C61.5698 49.7771 62.1332 49.4999 62.1551 49.1723C62.177 48.8448 60.0924 48.0273 60.0924 48.0273Z" fill="#D99F5E"/>
<path d="M62.7128 47.3036C62.7128 47.3036 61.9894 46.4183 60.3666 47.4775C60.3666 47.4775 59.8004 47.7657 59.9687 48.1333C59.9687 48.1333 60.1724 48.6314 60.4741 49.0739C60.6823 49.3305 61.16 48.8632 61.0011 48.4256C62.1875 48.9786 61.8381 49.5425 62.398 49.2441C62.958 48.9457 63.4957 48.0897 62.7128 47.3036Z" fill="#EAC180"/>
<path d="M69.2144 42.5062C69.4071 41.8855 70.4855 36.0587 70.5919 35.1359C70.7919 33.4018 68.1043 32.7004 67.6938 34.7329C67.3965 36.2045 66.8357 40.9579 66.6801 41.7827C66.4546 42.9782 68.8335 43.7334 69.2144 42.5062Z" fill="#EAC180"/>
<path d="M72.4328 45.8555C74.0024 48.1785 73.2643 50.7629 70.9458 51.857C68.5118 53.0057 66.0555 52.5517 65.1248 49.5457C64.5888 47.814 64.4971 46.2775 64.4971 46.2775L72.4328 45.8555Z" fill="black"/>
<path d="M70.2942 32.4148C69.5787 32.1249 68.5246 32.2124 67.8707 32.4337C67.1594 34.5245 63.3279 36.7646 63.0394 38.4095C63.0455 39.1719 63.9276 40.2642 64.441 40.6307C65.0478 43.8058 64.402 46.3324 64.402 46.3324C64.402 46.3324 66.0633 47.061 68.5218 46.9474C71.262 46.8207 72.3021 46.1254 72.4323 45.8518C72.3345 44.5621 71.2057 43.2804 72.1609 38.6764C72.5777 36.6669 72.8463 35.165 71.9336 33.83C71.4788 33.1649 70.9143 32.6659 70.2942 32.4148Z" fill="#5E9D48"/>
<path d="M68.1374 38.6445C67.3512 40.2333 66.6856 41.1275 64.4412 40.6296C67.2856 41.883 68.2902 40.4572 68.1374 38.6445Z" fill="#653440"/>
<path d="M72.3247 36.1249C72.3418 35.1122 71.9072 33.865 70.6739 33.7352C69.453 33.6068 68.4005 34.4687 68.4472 35.9699C68.4845 37.1732 68.7503 39.429 70.3834 39.8208C71.5385 40.0976 72.2904 38.1615 72.3247 36.1249Z" fill="#EAC180"/>
<path d="M71.3552 34.9531C71.7592 35.9031 71.4255 37.6555 69.7044 39.5228C69.318 39.2771 69.1952 38.8349 69.1952 38.8349L71.3552 34.9531Z" fill="#D99F5E"/>
<path d="M70.0742 33.057C69.0507 33.3073 68.7228 33.8309 67.4876 35.1152C66.4608 36.1829 66.353 36.2974 65.7432 36.6121C65.2693 36.8567 64.3258 36.7309 64.2149 36.6369C65.2221 35.649 67.4832 33.5774 67.8722 32.4337C68.5261 32.2124 69.5802 32.1249 70.2957 32.4148C70.4639 32.4829 70.8462 32.6581 71.3057 33.0807C70.9741 32.9736 70.7738 32.8857 70.0742 33.057Z" fill="#EAC180"/>
<path d="M71.0579 34.2684C71.7512 34.7696 71.9816 36.1335 70.5809 37.729C69.8304 38.5839 66.6919 41.6417 66.246 42.0264C65.1427 42.9782 63.3871 41.0288 64.3042 40.0079C65.3816 38.8083 67.0779 36.3857 68.2956 35.0967C69.5124 33.8083 70.3718 33.7722 71.0579 34.2684Z" fill="#EAC180"/>
<path d="M70.4101 32.7531L70.4238 29.7656L67.851 30.2129L67.8202 32.9557C68.5096 33.4267 70.2196 33.0408 70.4101 32.7531Z" fill="#EAC180"/>
<path d="M70.4238 29.7656L70.4147 31.7402C69.7401 32.0523 68.6482 32.2334 67.8284 32.2345L67.851 30.2131L70.4238 29.7656Z" fill="#D99F5E"/>
<path d="M65.3766 26.4115C65.3815 26.4091 65.3836 26.4082 65.3896 26.4058L65.283 26.0938C64.5572 26.758 63.7234 27.2089 62.955 27.6979C64.3533 29.167 65.9754 28.0394 65.7493 26.3525C65.6011 26.3451 65.4569 26.3843 65.3766 26.4115C65.286 26.4515 65.3005 26.4374 65.3766 26.4115Z" fill="#EAC180"/>
<path d="M71.475 29.4803C69.9675 31.5996 66.724 31.8508 65.4727 31.7161C64.9318 31.6577 64.5633 30.5365 64.3684 29.5275C64.0406 27.8293 63.9388 25.6246 64.4725 24.1991C65.3544 21.845 68.4709 20.1472 70.8715 21.1261C73.2707 22.1055 72.8841 27.4994 71.475 29.4803Z" fill="#EAC180"/>
<path d="M66.6237 29.3008C66.6412 29.3548 66.644 29.4085 66.6394 29.4616C66.6398 29.5141 66.6296 29.5661 66.616 29.615C66.588 29.7132 66.5369 29.7998 66.4604 29.8599C66.3859 29.9217 66.2863 29.9609 66.1768 29.9789C66.0679 30.0007 65.9516 30.0051 65.8298 30.014C65.9418 30.0553 66.0625 30.0871 66.1892 30.081C66.3148 30.0825 66.4496 30.042 66.5535 29.9589C66.6559 29.8743 66.7178 29.7513 66.7227 29.6312C66.7285 29.5134 66.7094 29.3878 66.6237 29.3008Z" fill="#864E26"/>
<path d="M70.9484 27.6406C71.0147 28.6287 69.9221 31.5618 68.7469 33.1518C70.2035 32.8275 71.4616 30.6973 71.4947 29.3695C71.5276 28.0422 70.9484 27.6406 70.9484 27.6406Z" fill="black"/>
<path d="M64.6754 25.543C64.6187 25.8555 64.4411 26.9831 65.386 27.0875C66.3309 27.1918 66.1066 25.8122 66.1066 25.8122C66.1066 25.8122 65.1069 25.598 64.6754 25.543Z" fill="url(#paint1_linear_171_438)"/>
<path d="M64.9436 25.4955C65.8014 25.5456 66.6196 25.9052 65.705 25.7854C64.7718 25.6631 64.4101 25.4643 64.9436 25.4955Z" fill="#7C4256"/>
<path d="M65.6738 27.0386C65.4827 26.5017 64.8645 26.6107 64.8158 27.0399" stroke="#41353F" stroke-width="0.5754" stroke-miterlimit="10" stroke-linecap="round"/>
<path d="M67.2554 20.0851C68.709 18.5088 73.3065 19.7069 75.1475 23.5392C77.1801 27.7707 72.3004 29.8633 70.8683 30.7323C71.4377 29.8794 71.0041 26.0514 70.6865 24.9978C70.0611 22.9227 69.6555 21.4092 67.2554 20.0851Z" fill="black"/>
<path d="M71.9637 27.1283C71.7924 27.6658 71.3719 28.0236 71.0244 27.9274C70.6769 27.8312 70.5341 27.3172 70.7054 26.7796C70.8767 26.2421 71.2972 25.8843 71.6447 25.9805C71.9922 26.0767 72.135 26.5907 71.9637 27.1283Z" fill="#EAC180"/>
<path d="M65.5353 39.9921C64.1201 39.2413 58.3129 36.6016 58.3129 36.6016C57.6075 37.1637 57.5281 37.9335 57.5281 37.9335C58.7829 38.6715 62.3191 41.4511 65.0275 42.2769C66.3483 42.6795 67.323 40.9406 65.5353 39.9921Z" fill="#EAC180"/>
<path d="M58.2698 37.7028C58.2698 37.7028 59.2259 36.7853 57.6587 35.2448C57.6587 35.2448 57.2111 34.6936 56.7917 34.9345C56.7917 34.9345 55.9574 33.9297 55.5855 34.507C55.5855 34.507 54.4362 36.172 55.2086 36.9248C55.9805 37.6776 57.2241 38.6911 58.2698 37.7028Z" fill="#EAC180"/>
<path d="M68.1883 23.8496C68.582 24.8041 68.3852 26.4747 67.6175 26.952C68.1292 27.2273 68.838 26.3646 68.838 26.3646C68.838 26.3646 68.0541 27.6769 68.445 29.0624C68.445 28.5884 68.5624 27.3609 68.9166 26.8236C69.2708 29.2835 68.8576 30.0729 68.3458 30.5869C69.2907 30.4768 69.704 29.2652 69.704 29.2652C69.704 29.2652 69.2907 30.5136 69.0151 30.7706C69.9992 30.5871 70.7067 30.0648 71.1207 28.8014C71.4229 27.8789 71.331 26.5676 71.1212 25.6307C70.7821 24.116 70.0482 23.4844 70.0482 23.4844L68.1883 23.8496Z" fill="black"/>
<path d="M70.6338 24.256C70.3598 25.3066 70.1052 25.887 69.4089 26.1854C69.5218 25.0448 69.2245 24.0789 69.2245 24.0789C69.2245 24.0789 68.5293 25.3323 66.9308 25.5051C67.5564 25.2889 68.4136 24.6624 68.4136 24.6624C68.4136 24.6624 67.0465 25.5915 64.8919 25.1377C62.737 24.6839 62.737 24.3814 62.737 24.3814C62.737 24.3814 63.6639 24.3165 64.1505 22.7607C64.6371 21.2048 65.6566 19.8219 67.4407 20.2108C69.2243 20.6 70.0737 22.0562 70.6338 24.256Z" fill="black"/>
<path d="M70.7383 24.1479C70.7383 24.1479 69.6471 21.0501 67.0117 20.1467C67.1209 19.6422 67.615 19.467 68.256 19.8424C69.2872 20.4461 70.6062 22.0791 70.7383 24.1479Z" fill="#FFCE52"/>
<defs>
<linearGradient id="paint0_linear_171_438" x1="19.3122" y1="21.3595" x2="19.141" y2="23.4709" gradientUnits="userSpaceOnUse">
<stop stop-color="#C99A6A"/>
<stop offset="1" stop-color="#C99A6A" stop-opacity="0"/>
</linearGradient>
<linearGradient id="paint1_linear_171_438" x1="65.5538" y1="24.6251" x2="65.3719" y2="26.3615" gradientUnits="userSpaceOnUse">
<stop stop-color="#B9906C"/>
<stop offset="1" stop-color="#B9906C" stop-opacity="0"/>
</linearGradient>
</defs>
</svg>
