<svg width="30" height="30" viewBox="0 0 30 30" fill="none" xmlns="http://www.w3.org/2000/svg">
<path d="M20.8806 8.12571C20.8806 8.28977 20.8747 8.45383 20.863 8.61789C20.8571 8.69993 20.8483 8.77903 20.8396 8.86106C20.8337 8.91086 20.8513 9.01633 20.8396 8.86399C20.8425 8.91379 20.8249 8.97532 20.8161 9.02219C20.7634 9.34739 20.6843 9.66965 20.5817 9.98313C20.5319 10.1325 20.4763 10.279 20.4206 10.4226C20.3708 10.5486 20.4763 10.3025 20.4177 10.4255C20.403 10.4607 20.3855 10.4958 20.3708 10.531C20.3327 10.613 20.2946 10.695 20.2507 10.7741C20.1101 11.0495 19.9489 11.3132 19.7702 11.5652C19.7321 11.6208 19.6882 11.7087 19.6325 11.7497C19.7351 11.6706 19.6648 11.7087 19.6296 11.7527C19.6062 11.782 19.5827 11.8113 19.5564 11.8406C19.4509 11.9695 19.3396 12.0925 19.2224 12.2097C19.1169 12.321 19.0056 12.4265 18.8913 12.529C18.8327 12.5788 18.7771 12.6316 18.7185 12.6784C18.6892 12.7019 18.6599 12.7282 18.6306 12.7517C18.6101 12.7663 18.5896 12.7839 18.569 12.7986C18.6364 12.7458 18.6452 12.74 18.5954 12.7781C18.3464 12.9626 18.0915 13.1325 17.822 13.279C17.6872 13.3552 17.5495 13.4226 17.4089 13.49C17.3737 13.5075 17.3386 13.5222 17.3034 13.5368C17.1774 13.5925 17.4265 13.487 17.3005 13.5398C17.2155 13.5749 17.1306 13.6072 17.0456 13.6394C16.7351 13.7507 16.4187 13.8386 16.0964 13.9031C16.0173 13.9177 15.9382 13.9323 15.8591 13.9441C15.8239 13.9499 15.7771 13.9646 15.739 13.9616C15.8562 13.9704 15.821 13.9499 15.7741 13.9558C15.5983 13.9734 15.4226 13.9909 15.2468 13.9968C14.904 14.0085 14.5671 13.9909 14.2273 13.9558C14.0866 13.9411 14.362 13.9763 14.2243 13.9558C14.1833 13.9499 14.1452 13.9441 14.1042 13.9382C14.0251 13.9265 13.946 13.9118 13.8698 13.8943C13.7028 13.8591 13.5358 13.8181 13.3689 13.7712C13.2194 13.7273 13.07 13.6804 12.9206 13.6247C12.8591 13.6013 12.7976 13.5779 12.739 13.5544C12.7273 13.5486 12.7155 13.5456 12.7038 13.5398C12.6452 13.5163 12.6569 13.5193 12.736 13.5544C12.698 13.5544 12.6276 13.5075 12.5954 13.49C12.3024 13.3552 12.0212 13.1999 11.7517 13.0212C11.6872 12.9802 11.6228 12.9363 11.5612 12.8923C11.5056 12.8542 11.4177 12.8103 11.3767 12.7546C11.4558 12.8572 11.4177 12.7868 11.3737 12.7517C11.3444 12.7282 11.3151 12.7048 11.2858 12.6784C11.2185 12.6198 11.1482 12.5613 11.0837 12.5027C10.8552 12.2976 10.6442 12.0749 10.448 11.8406C10.4245 11.8113 10.3982 11.782 10.3747 11.7527C10.3396 11.7087 10.2663 11.6706 10.3718 11.7497C10.319 11.7087 10.2751 11.6179 10.2341 11.5652C10.1374 11.4304 10.0466 11.2898 9.96163 11.1462C9.88253 11.0144 9.80635 10.8796 9.73897 10.739C9.70381 10.6687 9.67159 10.6013 9.63643 10.531C9.61885 10.4958 9.60421 10.4607 9.58956 10.4255C9.56319 10.3669 9.56905 10.3786 9.60128 10.4577C9.59249 10.4343 9.58077 10.4109 9.57198 10.3845C9.45479 10.0945 9.35811 9.7927 9.28487 9.48801C9.24678 9.33274 9.21456 9.17746 9.19112 9.01926C9.18526 8.97825 9.1794 8.94016 9.17354 8.89915C9.15303 8.75852 9.18819 9.03684 9.17354 8.89622C9.16475 8.80247 9.15303 8.70871 9.14717 8.61496C9.12081 8.27512 9.12374 7.93235 9.1501 7.5925C9.15596 7.51047 9.16475 7.43137 9.17354 7.34934C9.18819 7.20872 9.15303 7.48411 9.17354 7.34641C9.1794 7.30539 9.18526 7.26731 9.19112 7.22629C9.22042 7.05637 9.25264 6.88645 9.29659 6.71946C9.37276 6.41477 9.47237 6.11594 9.58956 5.8259C9.63936 5.69993 9.53389 5.94602 9.59249 5.82297C9.60714 5.78782 9.62471 5.75266 9.63936 5.7175C9.67159 5.64719 9.70674 5.57688 9.7419 5.5095C9.81807 5.36008 9.9001 5.2136 9.98506 5.07004C10.0642 4.93821 10.1491 4.8093 10.2399 4.68332C10.278 4.62766 10.322 4.53977 10.3776 4.49875C10.2751 4.57786 10.3454 4.53977 10.3806 4.49582C10.4128 4.45481 10.445 4.41672 10.4773 4.37864C10.6735 4.14426 10.8903 3.92454 11.1189 3.71946C11.1774 3.66965 11.2331 3.61692 11.2917 3.57004C11.321 3.54661 11.3503 3.52024 11.3796 3.4968C11.4235 3.46165 11.4616 3.3884 11.3825 3.49387C11.4235 3.44114 11.5144 3.39719 11.5671 3.35618C11.6403 3.30344 11.7136 3.25364 11.7898 3.20383C12.0593 3.02805 12.3435 2.87278 12.6364 2.74094C12.6599 2.72922 12.7155 2.69407 12.7419 2.69407C12.7185 2.70286 12.695 2.71457 12.6745 2.72336C12.698 2.71457 12.7214 2.70286 12.7478 2.69407C12.8093 2.67063 12.8679 2.64719 12.9294 2.62375C13.0876 2.56516 13.2517 2.51243 13.4157 2.46555C13.5681 2.42161 13.7233 2.38645 13.8786 2.35422C13.9577 2.33957 14.0368 2.32493 14.113 2.31028C14.154 2.30442 14.1921 2.29856 14.2331 2.2927C14.2976 2.28391 14.2858 2.28391 14.198 2.29856L14.2771 2.28977C14.6169 2.25168 14.9567 2.23997 15.2995 2.25461C15.4548 2.26047 15.6101 2.27512 15.7653 2.2927C15.8181 2.29856 15.8855 2.28098 15.7507 2.28977C15.7858 2.28684 15.8327 2.30149 15.8708 2.30735C15.9616 2.322 16.0554 2.33957 16.1462 2.35715C16.4685 2.42161 16.7849 2.51243 17.0925 2.62668C17.1657 2.65305 17.239 2.68235 17.3093 2.71164C17.4353 2.76145 17.1892 2.65598 17.3122 2.71457C17.3474 2.72922 17.3825 2.7468 17.4177 2.76145C17.57 2.83176 17.7194 2.90793 17.8659 2.98997C18.0007 3.06614 18.1325 3.14524 18.2614 3.2302C18.3142 3.26536 18.3669 3.30051 18.4196 3.3386C18.4841 3.38254 18.5896 3.43528 18.6364 3.4968C18.5573 3.39426 18.5954 3.46457 18.6394 3.49973C18.6687 3.52317 18.698 3.54661 18.7273 3.57297C18.7858 3.62278 18.8444 3.67258 18.9001 3.72239C19.0232 3.83372 19.1433 3.94797 19.2575 4.06809C19.363 4.17942 19.4655 4.29368 19.5651 4.41086C19.5886 4.44016 19.6149 4.46946 19.6384 4.49875C19.6735 4.5427 19.7468 4.58079 19.6413 4.50168C19.7028 4.54856 19.7556 4.65403 19.7995 4.71848C19.9753 4.97043 20.1364 5.23704 20.2741 5.51243C20.3093 5.58274 20.3415 5.65012 20.3767 5.72043C20.3942 5.75559 20.4089 5.79075 20.4235 5.8259C20.4792 5.95188 20.3737 5.70286 20.4265 5.82883C20.488 5.98704 20.5495 6.14524 20.5993 6.30637C20.6989 6.61985 20.778 6.94211 20.8278 7.27024C20.8337 7.30539 20.8483 7.35227 20.8454 7.39036C20.8571 7.24094 20.8396 7.34641 20.8454 7.39329C20.8542 7.47532 20.863 7.55442 20.8689 7.63645C20.8718 7.79758 20.8776 7.96164 20.8806 8.12571C20.8806 8.43332 21.1501 8.72629 21.4665 8.71164C21.7829 8.697 22.0524 8.45383 22.0524 8.12571C22.0466 6.69016 21.6101 5.24875 20.7722 4.07688C19.9255 2.89329 18.7595 1.9968 17.3942 1.49289C16.0261 0.988989 14.4792 0.942114 13.0788 1.34055C11.7282 1.72434 10.486 2.52415 9.59249 3.60813C8.65206 4.75364 8.08956 6.13645 7.97237 7.61301C7.85811 9.05442 8.21846 10.5368 8.96846 11.7732C9.6921 12.9656 10.7819 13.9558 12.0593 14.53C13.4304 15.1482 14.945 15.3239 16.4245 15.031C17.8073 14.7556 19.1052 14.032 20.0808 13.0154C21.0593 11.9958 21.739 10.6745 21.9558 9.27414C22.0144 8.89329 22.0524 8.5095 22.0524 8.12571C22.0524 7.81809 21.7829 7.52512 21.4665 7.53977C21.1472 7.55442 20.8806 7.79758 20.8806 8.12571ZM24.654 27.7575H5.3503C5.32393 27.7575 5.29464 27.7575 5.26827 27.7546C5.27413 27.7546 5.18917 27.7517 5.18917 27.7488C5.18624 27.7429 5.34151 27.7781 5.22725 27.7517C5.17745 27.74 5.12471 27.7282 5.07491 27.7136C5.05733 27.7077 5.03682 27.696 5.01925 27.696C4.946 27.6843 5.11592 27.7517 5.05147 27.7107C5.01339 27.6872 4.97237 27.6697 4.93428 27.6491C4.8962 27.6257 4.86104 27.5993 4.82296 27.5759C4.76729 27.5437 4.86983 27.6052 4.8669 27.6111C4.86397 27.614 4.80245 27.5554 4.79659 27.5495C4.76436 27.5202 4.73507 27.4851 4.70577 27.4529C4.63546 27.3825 4.76143 27.5466 4.69405 27.4353C4.67061 27.3972 4.64718 27.362 4.62374 27.321C4.61202 27.2976 4.6003 27.2741 4.58858 27.2536C4.54464 27.1687 4.60323 27.2888 4.60323 27.2888C4.57686 27.2917 4.54464 27.0515 4.52999 27.0251C4.571 27.1013 4.53878 27.1247 4.53585 27.0632C4.53585 27.0368 4.53292 27.0105 4.52999 26.9812V23.6003C4.52999 23.3044 4.57686 23.0144 4.58272 22.7214C4.58272 22.7214 4.56514 22.8445 4.57393 22.7771C4.57686 22.7507 4.58272 22.7243 4.58565 22.698C4.59151 22.6511 4.6003 22.6042 4.60909 22.5603C4.62667 22.4607 4.64425 22.364 4.66768 22.2673C4.7087 22.0798 4.7585 21.8952 4.81417 21.7136C4.87276 21.5261 4.94014 21.3445 5.01339 21.1628C5.05147 21.0661 4.96358 21.2771 5.02217 21.1423C5.03975 21.1013 5.06026 21.0603 5.07784 21.0193C5.11885 20.9314 5.1628 20.8435 5.20675 20.7585C5.38253 20.4216 5.5876 20.1052 5.81319 19.7976C5.87471 19.7156 5.74288 19.8825 5.82784 19.78C5.85714 19.7448 5.8835 19.7097 5.9128 19.6745C5.97432 19.6013 6.03585 19.528 6.1003 19.4577C6.22921 19.3142 6.36397 19.1794 6.5046 19.0476C6.63936 18.9216 6.78292 18.8015 6.92647 18.6843C7.00557 18.6198 6.83858 18.7488 6.94405 18.6697C6.97921 18.6433 7.01729 18.6169 7.05245 18.5906C7.13448 18.532 7.21944 18.4734 7.30733 18.4177C7.62081 18.2126 7.95186 18.0398 8.29171 17.8845C8.38546 17.8406 8.18917 17.9255 8.31221 17.8757C8.35323 17.8581 8.39717 17.8406 8.43819 17.8259C8.53487 17.7878 8.63448 17.7527 8.73409 17.7204C8.91573 17.6618 9.09737 17.6091 9.28487 17.5652C9.47237 17.5212 9.6628 17.4831 9.85323 17.4538C9.87374 17.4509 9.91182 17.4392 9.93233 17.4421C9.93526 17.4421 9.80928 17.4568 9.87667 17.4509C9.92354 17.445 9.97042 17.4392 10.0173 17.4363C10.1257 17.4245 10.2341 17.4157 10.3425 17.4099C10.5651 17.3982 10.7907 17.4011 11.0134 17.4011H19.2868C19.5769 17.4011 19.864 17.448 20.1511 17.4538C20.1511 17.4538 20.028 17.4363 20.0954 17.445C20.1218 17.448 20.1481 17.4538 20.1745 17.4568C20.2214 17.4626 20.2683 17.4714 20.3122 17.4802C20.4118 17.4978 20.5085 17.5154 20.6052 17.5388C20.7927 17.5798 20.9773 17.6296 21.1589 17.6853C21.3464 17.7439 21.528 17.8113 21.7097 17.8845C21.8064 17.9226 21.5954 17.8347 21.7302 17.8933C21.7712 17.9109 21.8122 17.9314 21.8532 17.9489C21.9411 17.99 22.029 18.0339 22.114 18.0779C22.4509 18.2536 22.7673 18.4587 23.0749 18.6843C23.1569 18.7458 22.9899 18.614 23.0925 18.6989C23.1276 18.7282 23.1628 18.7546 23.198 18.7839C23.2712 18.8454 23.3444 18.907 23.4148 18.9714C23.5583 19.1003 23.6931 19.2351 23.8249 19.3757C23.9509 19.5105 24.071 19.654 24.1882 19.7976C24.2526 19.8767 24.1237 19.7097 24.2028 19.8152C24.2292 19.8503 24.2556 19.8884 24.2819 19.9236C24.3405 20.0056 24.3991 20.0906 24.4548 20.1784C24.6599 20.4919 24.8327 20.823 24.988 21.1628C25.0319 21.2566 24.947 21.0603 24.9968 21.1833C25.0144 21.2243 25.0319 21.2683 25.0466 21.3093C25.0847 21.406 25.1198 21.5056 25.1521 21.6052C25.2107 21.7868 25.2634 21.9685 25.3073 22.156C25.3513 22.3435 25.3894 22.5339 25.4187 22.7243C25.4216 22.7448 25.4333 22.7829 25.4304 22.8034C25.4304 22.8064 25.4157 22.6804 25.4216 22.7478C25.4274 22.7947 25.4333 22.8415 25.4362 22.8884C25.448 22.9968 25.4567 23.1052 25.4626 23.2136C25.4802 23.5593 25.4714 23.905 25.4714 24.2507C25.4714 25.1443 25.4802 26.0378 25.4714 26.9314V26.9841C25.4714 27.0046 25.4597 27.1628 25.4685 27.0661C25.4773 26.9695 25.4538 27.1189 25.448 27.1423C25.445 27.154 25.4099 27.2917 25.4011 27.2888C25.3923 27.2888 25.4597 27.1804 25.4216 27.2361C25.4128 27.2507 25.404 27.2712 25.3952 27.2888C25.3718 27.3327 25.3454 27.3767 25.319 27.4206C25.3103 27.4353 25.2956 27.4499 25.2868 27.4675C25.2517 27.532 25.363 27.3884 25.3073 27.4382C25.2751 27.4675 25.2487 27.5056 25.2165 27.5349C25.2019 27.5495 25.1872 27.5613 25.1755 27.573C25.1696 27.5759 25.1667 27.5818 25.1608 27.5847C25.1228 27.6169 25.1228 27.6169 25.1608 27.5876C25.1755 27.5525 25.1989 27.5613 25.1608 27.5876C25.1403 27.6023 25.1198 27.6169 25.0964 27.6286C25.0583 27.6521 25.0202 27.6726 24.9792 27.6931C24.8649 27.7546 25.0583 27.6726 24.9587 27.7019C24.9148 27.7136 24.8737 27.7282 24.8269 27.74C24.8064 27.7458 24.7888 27.7488 24.7683 27.7517C24.654 27.7781 24.8093 27.7429 24.8064 27.7488C24.8093 27.7605 24.6716 27.7575 24.654 27.7575C24.3464 27.7605 24.0534 28.0241 24.0681 28.3435C24.0827 28.657 24.3259 28.9353 24.654 28.9294C25.7116 28.9148 26.5524 28.1032 26.6403 27.0573C26.6667 26.7351 26.6462 26.404 26.6462 26.0818C26.6462 25.1911 26.6667 24.3005 26.6433 23.4099C26.6023 21.7136 25.9724 20.0905 24.8796 18.7986C23.8366 17.5622 22.3454 16.6804 20.7575 16.3698C19.9812 16.2175 19.2107 16.2234 18.4255 16.2234H12.1355C11.5759 16.2234 11.0163 16.2087 10.4567 16.2292C8.76631 16.2907 7.14913 16.9353 5.86885 18.0398C4.64425 19.0974 3.77706 20.5974 3.48409 22.1911C3.29366 23.2195 3.35225 24.2771 3.35225 25.3171V26.7556C3.35225 26.8845 3.35225 27.0105 3.3669 27.1394C3.42843 27.6345 3.64522 28.112 4.03487 28.4372C4.42745 28.7654 4.89327 28.9323 5.40596 28.9323H24.6511C24.9587 28.9323 25.2517 28.6628 25.237 28.3464C25.2253 28.0241 24.9821 27.7575 24.654 27.7575Z" fill="#8B8B8B"/>
</svg>
