<svg width="102" height="94" viewBox="0 0 102 94" fill="none" xmlns="http://www.w3.org/2000/svg">
<path d="M51.6848 82.2143C65.2796 82.0503 89.048 79.6706 85.5457 65.8561C82.0434 52.0417 75.0782 51.3761 85.6981 40.9596C95.1392 31.6994 89.8095 21.3765 81.5867 19.403C75.5475 17.9536 69.597 17.5709 67.4608 10.0412C64.4353 -0.62328 52.2507 -2.8911 45.0937 4.54748C37.9367 11.9861 32.8275 11.0939 25.7015 8.16929C16.3516 4.33205 4.7229 11.156 11.2732 23.5064C16.2435 32.878 21.8218 40.9136 12.5697 45.4816C1.2241 51.0829 4.72593 60.6667 10.4739 65.2491C17.4321 70.7961 15.0847 76.0127 12.0941 80.4225C9.10335 84.8322 40.6267 82.3478 51.6848 82.2143Z" fill="#F1F8FE"/>
<path d="M64.4775 13.4496C63.7664 10.4788 65.6057 7.49572 68.5858 6.78683C71.5658 6.07794 74.558 7.91163 75.2691 10.8825C75.9802 13.8534 74.1408 16.8364 71.1608 17.5453C68.1808 18.2542 65.1886 16.4205 64.4775 13.4496Z" fill="#F1F8FE"/>
<path d="M79.2418 14.0077C79.2418 14.8901 79.9594 15.6053 80.8443 15.6053C81.7294 15.6053 82.4468 14.8901 82.4468 14.0077C82.4468 13.1253 81.7292 12.4102 80.8443 12.4102C79.9591 12.4102 79.2418 13.1255 79.2418 14.0077Z" fill="#F1F8FE"/>
<path d="M40.4054 5.59475C39.688 4.77756 39.7709 3.53531 40.5906 2.82009C41.4103 2.10487 42.6564 2.18754 43.3738 3.00473C44.0913 3.82191 44.0083 5.06417 43.1886 5.77939C42.3689 6.49461 41.1228 6.41194 40.4054 5.59475Z" fill="#F1F8FE"/>
<path d="M27.2155 10.3923C25.7477 9.8485 25.0001 8.22142 25.5456 6.75816C26.0911 5.2949 27.7232 4.54956 29.191 5.09341C30.6588 5.63725 31.4064 7.26433 30.8609 8.72759C30.3154 10.1909 28.6832 10.9362 27.2155 10.3923Z" fill="#F1F8FE"/>
<path d="M23.7697 1.4745C23.3613 1.4745 23.0302 1.14442 23.0302 0.737251C23.0302 0.330078 23.3613 0 23.7697 0C24.1782 0 24.5093 0.330078 24.5093 0.737251C24.5093 1.14442 24.1782 1.4745 23.7697 1.4745Z" fill="#F1F8FE"/>
<path d="M28.6999 2.70233C28.4957 2.70233 28.3301 2.53724 28.3301 2.33359C28.3301 2.12993 28.4957 1.96484 28.6999 1.96484C28.9042 1.96484 29.0698 2.12993 29.0698 2.33359C29.0698 2.53724 28.9042 2.70233 28.6999 2.70233Z" fill="#F1F8FE"/>
<path d="M11.8128 29.1255C10.247 29.1255 8.9777 27.86 8.9777 26.2991C8.9777 24.7381 10.247 23.4727 11.8128 23.4727C13.3786 23.4727 14.6479 24.7381 14.6479 26.2991C14.6479 27.86 13.3786 29.1255 11.8128 29.1255Z" fill="#F1F8FE"/>
<path d="M85.6982 45.3461C83.2673 45.3461 81.2967 43.3816 81.2967 40.9582C81.2967 38.5348 83.2673 36.5703 85.6982 36.5703C88.129 36.5703 90.0996 38.5348 90.0996 40.9582C90.0996 43.3816 88.129 45.3461 85.6982 45.3461Z" fill="#F1F8FE"/>
<path d="M95.3904 38.7136C95.3904 39.2566 95.8319 39.6968 96.3766 39.6968C96.9213 39.6968 97.3628 39.2566 97.3628 38.7136C97.3628 38.1706 96.9213 37.7305 96.3766 37.7305C95.8319 37.7305 95.3904 38.1706 95.3904 38.7136Z" fill="#F1F8FE"/>
<path d="M94.7734 47.558C93.7521 47.558 92.9242 46.7327 92.9242 45.7146C92.9242 44.6964 93.7521 43.8711 94.7734 43.8711C95.7947 43.8711 96.6226 44.6964 96.6226 45.7146C96.6226 46.7327 95.7947 47.558 94.7734 47.558Z" fill="#F1F8FE"/>
<path d="M7.19384 65.9638C6.86745 64.6459 7.67456 63.3137 8.99659 62.9883C10.3186 62.6629 11.6549 63.4676 11.9813 64.7855C12.3077 66.1035 11.5006 67.4356 10.1785 67.761C8.85651 68.0864 7.52022 67.2818 7.19384 65.9638Z" fill="#F1F8FE"/>
<path d="M1.33475 61.323C1.33475 61.866 1.77627 62.3062 2.32094 62.3062C2.86561 62.3062 3.30713 61.866 3.30713 61.323C3.30713 60.78 2.86561 60.3398 2.32094 60.3398C1.77627 60.3398 1.33475 60.78 1.33475 61.323Z" fill="#F1F8FE"/>
<path d="M3.55349 66.241C3.55349 66.784 3.99502 67.2241 4.53969 67.2241C5.08435 67.2241 5.52588 66.784 5.52588 66.241C5.52588 65.698 5.08435 65.2578 4.53969 65.2578C3.99502 65.2578 3.55349 65.698 3.55349 66.241Z" fill="#F1F8FE"/>
<path d="M3.55274 44.3675C3.55274 45.1141 4.15995 45.7194 4.90881 45.7194C5.65767 45.7194 6.26465 45.1141 6.26465 44.3675C6.26465 43.621 5.65767 43.0156 4.90881 43.0156C4.15995 43.0156 3.55274 43.621 3.55274 44.3675Z" fill="#F1F8FE"/>
<path d="M92.6788 8.23299C91.5215 8.23299 90.5832 7.29764 90.5832 6.14384C90.5832 4.99003 91.5215 4.05469 92.6788 4.05469C93.8362 4.05469 94.7744 4.99003 94.7744 6.14384C94.7744 7.29764 93.8362 8.23299 92.6788 8.23299Z" fill="#F1F8FE"/>
<path d="M96.4437 82.1786C97.4295 78.6945 93.0385 75.5676 89.9915 77.6223C90.4396 75.1209 88.0201 75.3889 87.3032 76.9076C85.7798 71.6366 79.3275 71.5472 77.7145 74.8529C76.2807 71.6368 74.9366 73.0662 74.847 74.8529C72.1586 71.8155 66.8713 72.6195 66.1544 76.0142C64.3622 74.4955 60.7775 75.1209 60.6879 76.8183C58.2684 75.0315 54.6837 79.409 54.6837 79.409C54.6837 79.409 93.6658 81.6426 96.4437 82.1786Z" fill="#D4E3CF"/>
<path d="M46.6177 79.8606C45.9904 75.1256 40.6135 74.5896 37.8355 76.6445C37.2979 71.5522 29.9495 69.9441 28.695 74.1431C23.9456 70.0337 23.4077 73.5178 23.6767 75.7512C20.0027 73.5178 20.0027 76.5552 20.2715 77.4485C17.3143 74.6791 10.7725 77.4485 10.0556 79.6819C7.18804 77.6272 7.36726 79.3246 7.54648 80.0393C5.93348 79.9499 5.93348 82.5407 5.93348 82.5407L46.6177 79.8606Z" fill="#D4E3CF"/>
<path d="M50.9985 88.5022C22.832 88.5022 -0.00146639 86.3821 -0.00146639 83.7667C-0.00146639 81.1514 22.832 79.0313 50.9985 79.0313C79.1651 79.0313 101.999 81.1514 101.999 83.7667C101.999 86.3821 79.1651 88.5022 50.9985 88.5022Z" fill="#BED6B3"/>
<path d="M18.8387 90.2078C14.8524 90.2078 11.6208 89.4259 11.6208 88.4613C11.6208 87.4968 14.8524 86.7148 18.8387 86.7148C22.8251 86.7148 26.0566 87.4968 26.0566 88.4613C26.0566 89.4259 22.8251 90.2078 18.8387 90.2078Z" fill="#BED6B3"/>
<path d="M28.1595 90.2064C28.1595 90.5922 28.9754 90.9051 29.9816 90.9051C30.9879 90.9051 31.8037 90.5922 31.8037 90.2064C31.8037 89.8205 30.9879 89.5078 29.9816 89.5078C28.9751 89.5078 28.1595 89.8205 28.1595 90.2064Z" fill="#BED6B3"/>
<path d="M84.0099 90.6279C79.2495 90.6279 75.3904 89.5018 75.3904 88.1128C75.3904 86.7237 79.2495 85.5977 84.0099 85.5977C88.7703 85.5977 92.6294 86.7237 92.6294 88.1128C92.6294 89.5018 88.7703 90.6279 84.0099 90.6279Z" fill="#BED6B3"/>
<path d="M78.5451 92.8572C77.0744 92.8572 75.8822 92.5131 75.8822 92.0887C75.8822 91.6644 77.0744 91.3203 78.5451 91.3203C80.0158 91.3203 81.208 91.6644 81.208 92.0887C81.208 92.5131 80.0158 92.8572 78.5451 92.8572Z" fill="#BED6B3"/>
<path d="M70.0658 90.0638C70.0658 90.2952 70.5365 90.483 71.1169 90.483C71.6973 90.483 72.168 90.2952 72.168 90.0638C72.168 89.8323 71.6973 89.6445 71.1169 89.6445C70.5365 89.6445 70.0658 89.8323 70.0658 90.0638Z" fill="#BED6B3"/>
<path d="M48.6221 88.6673C48.6221 89.4004 50.4732 89.9948 52.7566 89.9948C55.0401 89.9948 56.8911 89.4004 56.8911 88.6673C56.8911 87.9342 55.0401 87.3398 52.7566 87.3398C50.4732 87.3401 48.6221 87.9342 48.6221 88.6673Z" fill="#BED6B3"/>
<path d="M86.1117 93.0027C84.8345 93.0027 83.7991 92.6899 83.7991 92.3041C83.7991 91.9183 84.8345 91.6055 86.1117 91.6055C87.3889 91.6055 88.4243 91.9183 88.4243 92.3041C88.4243 92.6899 87.3889 93.0027 86.1117 93.0027Z" stroke="#BED6B3" stroke-miterlimit="10"/>
<path d="M95.8537 88.2517C94.5378 88.2517 93.4711 87.9077 93.4711 87.4833C93.4711 87.0589 94.5378 86.7148 95.8537 86.7148C97.1696 86.7148 98.2363 87.0589 98.2363 87.4833C98.2363 87.9077 97.1696 88.2517 95.8537 88.2517Z" stroke="#BED6B3" stroke-miterlimit="10"/>
<path d="M8.60723 88.7342C7.36879 88.7342 6.36485 88.4527 6.36485 88.1054C6.36485 87.7581 7.36879 87.4766 8.60723 87.4766C9.84566 87.4766 10.8496 87.7581 10.8496 88.1054C10.8496 88.4527 9.84566 88.7342 8.60723 88.7342Z" stroke="#BED6B3" stroke-miterlimit="10"/>
<path d="M46.0288 91.1814C44.829 91.1814 43.8564 90.8373 43.8564 90.413C43.8564 89.9886 44.829 89.6445 46.0288 89.6445C47.2286 89.6445 48.2012 89.9886 48.2012 90.413C48.2012 90.8373 47.2286 91.1814 46.0288 91.1814Z" stroke="#BED6B3" stroke-miterlimit="10"/>
<path d="M72.0586 84.5015C61.1014 84.5015 52.2189 83.8847 52.2189 83.1238C52.2189 82.3629 61.1014 81.7461 72.0586 81.7461C83.0159 81.7461 91.8984 82.3629 91.8984 83.1238C91.8984 83.8847 83.0159 84.5015 72.0586 84.5015Z" fill="#94B38A"/>
<path d="M28.5254 78.6217C29.3673 78.7776 29.6294 78.5373 29.6294 78.5373L29.662 80.3231C29.6868 80.7431 29.6925 81.2245 29.443 81.4872C29.2755 81.6636 29.0353 81.6899 28.81 81.7018C27.4228 81.7758 26.0231 81.5871 24.6297 81.3959C24.3319 81.3551 23.9561 81.2295 23.8982 80.8618C23.8563 80.5956 24.0193 80.3663 24.1842 80.2063C24.6427 79.761 26.7761 78.4149 27.5032 78.1484C27.5032 78.1484 28.239 78.5689 28.5254 78.6217Z" fill="black"/>
<path d="M23.9588 80.5039C23.9871 80.7705 24.9712 80.8752 24.9712 80.8752C26.677 81.2259 29.5767 80.9394 29.5767 80.9394L29.6587 80.9329C29.6343 81.1511 29.5737 81.3496 29.4425 81.4877C29.275 81.664 29.0348 81.6904 28.8095 81.7023C27.4223 81.7763 26.0227 81.5876 24.6292 81.3964C24.3314 81.3556 23.9556 81.23 23.8977 80.8623C23.8797 80.748 23.8989 80.6201 23.9404 80.5221L23.9588 80.5039Z" fill="#E9F0F3"/>
<path d="M45.0355 72.5548C45.6437 71.8548 45.6353 71.4648 45.6353 71.4648L46.878 72.4977C47.1804 72.7247 47.5137 73.0059 47.545 73.3975C47.5661 73.6604 47.441 73.9021 47.315 74.1216C46.5394 75.4721 45.5763 76.6782 44.6156 77.8766C44.4103 78.1327 44.1004 78.4119 43.814 78.2475C43.6068 78.1284 43.5467 77.8383 43.5353 77.5876C43.5034 76.8905 43.8518 74.0793 44.1024 73.2358C44.1024 73.2358 44.8286 72.793 45.0355 72.5548Z" fill="black"/>
<path d="M43.605 77.9763C43.8046 78.1084 44.4623 77.2439 44.4623 77.2439C45.7186 75.846 47.2494 72.9444 47.2494 72.9444L47.2938 72.8633C47.4287 73.0162 47.5286 73.1916 47.545 73.3974C47.5661 73.6603 47.441 73.902 47.315 74.1214C46.5394 75.4719 45.5763 76.678 44.6156 77.8764C44.4103 78.1326 44.1004 78.4118 43.814 78.2473C43.7251 78.1961 43.649 78.1019 43.6064 78.0045L43.605 77.9763Z" fill="#E9F0F3"/>
<path d="M30.6744 30.5311C28.1287 40.2989 30.3364 49.0002 30.3364 49.0002L36.3447 49.5988C35.0971 41.9164 36.3151 28.7227 36.3151 28.7227C36.3151 28.7227 35.3214 30.077 33.5096 29.811C32.5052 29.6635 31.9103 28.6406 31.9103 28.6406C31.9103 28.6406 31.02 29.2054 30.6744 30.5311Z" fill="#FFC533"/>
<path d="M27.335 51.4737C27.3829 51.7445 27.431 52.0151 27.479 52.2859C27.4991 52.3996 27.5191 52.5187 27.4911 52.6298C27.4631 52.7412 27.3697 52.839 27.2726 52.8168C27.1703 52.7934 27.1079 52.6536 27.0047 52.6363C26.9001 52.6187 26.8155 52.7343 26.7679 52.8448C26.5838 53.272 26.6091 53.7983 26.3965 54.2066C26.3798 54.239 26.3596 54.272 26.3295 54.2854C26.2488 54.3213 26.1846 54.2002 26.1632 54.1019C26.0927 53.7789 26.0695 53.4414 26.0953 53.1094C26.1304 53.2931 26.1657 53.4811 26.1458 53.6677C26.1258 53.8543 26.0395 54.0428 25.8925 54.118C25.7108 53.8274 25.6719 53.4222 25.7942 53.0916C25.696 53.2162 25.7047 53.4067 25.702 53.5762C25.6993 53.7459 25.6578 53.9475 25.5213 54.0035C25.3158 53.7221 25.2506 53.3092 25.3565 52.9602C25.337 53.0709 25.3174 53.1817 25.298 53.2922C25.2863 53.3587 25.2688 53.4343 25.2164 53.4634C25.1182 53.5177 25.0341 53.3616 25.0115 53.2369C24.873 52.4689 25.1569 51.3178 25.5372 50.6719L27.335 51.4737Z" fill="#F7C5B4"/>
<path d="M39.1562 50.4694C38.4646 50.4903 37.7564 50.4242 37.1209 50.1039C36.4852 49.7836 35.9278 49.177 35.7387 48.3965C35.7613 48.4441 35.7619 48.3426 35.7159 48.3512C33.9083 48.6878 32.0407 48.5739 30.2726 48.0195C30.3828 49.4741 30.4908 52.4449 30.6364 53.6539C29.7918 56.4629 28.9943 59.8836 27.9794 62.6141L26.3819 78.5345C26.3819 78.5345 28.1325 79.2968 29.64 79.1265L32.4491 63.4244L37.8386 53.4447L39.1562 50.4694Z" fill="#326B99"/>
<path d="M31.9741 49.4102C31.7963 49.7439 31.6505 50.0895 31.5161 50.4395C31.3818 50.7895 31.2586 51.1437 31.1483 51.5033C31.0367 51.8625 30.9391 52.2273 30.8516 52.597C30.7644 52.9668 30.6885 53.3421 30.6441 53.7323C30.8215 53.4021 30.9672 53.0569 31.1016 52.7065C31.2358 52.3559 31.3598 52.0004 31.47 51.6391C31.5813 51.2783 31.6799 50.9122 31.7672 50.5419C31.8545 50.1716 31.9305 49.7967 31.9741 49.4102Z" fill="#326B99"/>
<path d="M33.2018 61.1653C34.8693 63.9717 37.165 67.2109 39.3781 69.4393C40.0005 70.0662 42.8769 73.3495 43.754 74.1712L45.9512 71.4468C43.2923 68.48 40.4284 64.707 38.2567 61.2374C38.0661 60.9326 37.8764 60.6248 37.7266 60.2902C37.533 59.8583 37.4086 59.3894 37.2919 58.9211C37.026 57.8535 36.6332 56.3695 36.4385 55.2812L33.2018 61.1653Z" fill="#326B99"/>
<path d="M39.156 50.4694C39.8933 49.3498 41.0124 47.3064 41.2667 45.9622C41.3927 45.296 41.3835 44.6104 41.3738 43.9313C41.315 39.8422 41.2471 35.6872 40.1321 31.7903C39.9084 31.0086 39.6235 30.2085 39.0614 29.666C38.332 28.9621 37.2884 28.8285 36.3148 28.7266L35.9627 29.0924C35.273 29.8779 34.9297 30.9474 34.7125 32.0051C34.1665 34.6635 34.2976 37.4207 34.4917 40.1303C34.5963 41.5901 35.1922 47.0596 35.718 48.4041C35.718 48.4041 36.1355 50.064 37.7111 50.557C37.7111 50.557 38.9122 50.8397 39.156 50.4694Z" fill="#FFC533"/>
<path d="M30.2415 47.3776C30.0749 44.215 29.9585 41.0398 30.1533 37.8795C30.3481 34.719 30.8604 31.5627 31.9106 28.6431C31.5038 28.444 30.9636 28.492 30.5769 28.7403C30.033 29.0894 29.6818 30.0231 29.4711 30.707C28.4019 34.1776 25.2809 50.6935 25.2809 50.6935C25.2809 50.6935 26.1753 51.781 27.5705 51.7971L29.6203 44.8778L29.6875 48.7922L30.3237 48.7828L30.2415 47.3776Z" fill="#FFC533"/>
<path d="M37.8811 37.6055C37.8983 37.8393 37.9176 38.0721 37.9395 38.3042L37.9809 39.0032L38.0101 39.7018L38.0188 40.4005C38.0161 41.3316 37.9755 42.2617 37.88 43.1847C37.7898 44.1085 37.6453 45.0242 37.4631 45.9304L37.3165 46.6076L37.1497 47.2792L36.9713 47.9479C36.9039 48.1677 36.8392 48.389 36.7763 48.6118C36.862 48.4003 36.9462 48.1876 37.0278 47.9732L37.2557 47.3215L37.4546 46.6563L37.633 45.9826C37.8572 45.0789 38.0101 44.1509 38.1065 43.2158C38.1976 42.2799 38.2328 41.3358 38.1936 40.3957L38.1535 39.6919L38.0917 38.9909L37.9994 38.295C37.9621 38.0643 37.9226 37.8345 37.8811 37.6055Z" fill="#FFC533"/>
<path d="M36.958 55.0703C36.2323 56.2175 35.5649 57.4082 34.912 58.6092C34.2647 59.8147 33.6322 61.0311 33.0586 62.2911C33.7848 61.1443 34.452 59.9537 35.1046 58.7522C35.7513 57.5465 36.3838 56.3301 36.958 55.0703Z" fill="#326B99"/>
<path d="M32.8721 28.5944L32.9432 27.2403L35.1734 27.0742L35.2062 28.4653C35.2062 28.4653 35.7071 28.5315 35.857 28.585C35.9454 28.6165 35.3286 30.1294 33.7769 30.2059C32.2254 30.2824 32.2874 28.6454 32.2874 28.6454C32.2874 28.6454 32.217 28.6617 32.8721 28.5944Z" fill="#F7C5B4"/>
<path d="M31.2018 20.2681C30.9776 21.6138 31.2556 24.3305 31.4928 25.4056C31.5892 25.8425 31.6931 26.2945 31.9292 26.6507C33.0963 28.4116 34.6774 27.8788 35.199 27.4857C35.6084 27.1773 35.9359 26.751 36.1281 26.2268C36.6183 24.8892 36.8275 23.4115 36.7325 21.9598C36.7325 21.9598 36.9687 18.06 33.9453 18.0234C33.9453 18.0234 31.5764 18.0209 31.2018 20.2681Z" fill="#F7C5B4"/>
<path d="M32.1422 23.7705C32.1527 23.8917 32.245 23.9801 32.3484 23.9677C32.4518 23.9554 32.527 23.8472 32.5166 23.7257C32.5061 23.6046 32.4138 23.5162 32.3104 23.5285C32.2069 23.541 32.1317 23.6495 32.1422 23.7705Z" fill="#3C3C3B"/>
<path d="M35.1265 23.8328C35.137 23.954 35.2293 24.0424 35.3329 24.0301C35.4363 24.0177 35.5116 23.9095 35.5009 23.7881C35.4904 23.6669 35.3981 23.5785 35.2948 23.591C35.1914 23.6034 35.116 23.7116 35.1265 23.8328Z" fill="#3C3C3B"/>
<path d="M32.7341 22.9104C32.3618 22.7493 31.9063 22.8548 31.6168 23.1766C31.6001 23.1954 31.5994 23.2266 31.6154 23.2462C31.6293 23.2633 31.6518 23.266 31.6682 23.2539C31.9813 23.0264 32.3482 22.9328 32.7148 22.9971C32.7358 23.0011 32.7554 22.9842 32.7588 22.9597C32.7617 22.9382 32.7508 22.9177 32.7341 22.9104Z" fill="#3C3C3B"/>
<path d="M34.7651 23.1828C35.1187 23.0529 35.4937 23.079 35.833 23.2472C35.8542 23.2581 35.879 23.2466 35.8882 23.2217C35.8962 23.2 35.8895 23.1749 35.8736 23.1617C35.5455 22.8959 35.0815 22.8742 34.7348 23.1007C34.7163 23.1128 34.7097 23.1402 34.7199 23.1619C34.7288 23.1808 34.748 23.1891 34.7651 23.1828Z" fill="#3C3C3B"/>
<path d="M33.9207 22.8616C33.9965 23.3379 33.9678 23.8258 33.9915 24.3081C33.9927 24.3319 33.9936 24.357 33.9822 24.3781C33.9582 24.423 33.8952 24.4278 33.8437 24.4265C33.7655 24.4247 33.6875 24.423 33.6094 24.4211C33.5677 24.4201 33.5198 24.4159 33.4966 24.3827C33.4829 24.3628 33.4816 24.3371 33.4811 24.3131C33.4704 23.845 33.5044 23.3755 33.5827 22.912C33.5903 22.8662 33.5994 22.8186 33.6278 22.7808C33.6686 22.7265 33.7489 22.7039 33.812 22.729C33.812 22.729 33.9047 22.7603 33.9207 22.8616Z" fill="#EFA686"/>
<path d="M31.1213 21.8488C30.6629 16.708 35.2745 18.0426 35.2745 18.0426C35.6969 18.0326 36.2119 18.2305 36.4892 18.6041C36.7665 18.9777 36.9443 19.4922 37.0832 19.9598C37.3045 20.705 37.3362 21.5172 37.2974 22.3048C37.2769 22.7197 37.1507 23.2031 36.8123 23.3266C36.59 23.0645 36.7932 20.641 35.6778 19.7187C35.5044 20.2942 35.1872 21.042 34.7691 21.4058C34.3512 21.7696 33.8656 21.7615 33.3609 21.9109C33.3981 21.7667 33.4352 21.6227 33.4724 21.4785C33.3749 21.6194 33.2313 21.7044 33.0875 21.7717C32.4748 22.0582 31.7484 22.0902 31.1213 21.8488Z" fill="black"/>
<path d="M36.6357 24.162C36.7266 24.3107 36.9022 24.3803 37.0517 24.3268C37.1684 24.285 37.2602 24.1801 37.3374 24.0696C37.5405 23.7781 37.6763 23.3934 37.6073 23.0261C37.5902 22.9348 37.5591 22.8434 37.5001 22.7805C37.4019 22.6758 37.2466 22.675 37.1251 22.7379C37.0037 22.801 36.7892 23.0585 36.6714 23.1995L36.6357 24.162Z" fill="#F7C5B4"/>
<path d="M37.3183 23.0632C37.1752 23.1084 37.0467 23.2053 36.9362 23.3209C36.8316 23.4435 36.7418 23.5892 36.6963 23.7549C36.6928 23.7678 36.6988 23.7814 36.7097 23.7856C36.7197 23.7894 36.7302 23.7839 36.7346 23.7733C36.7984 23.6255 36.8774 23.4874 36.9818 23.3771C37.0804 23.2594 37.2019 23.1731 37.3309 23.1052C37.3406 23.1002 37.3448 23.0871 37.3407 23.0758C37.3368 23.0655 37.3272 23.0605 37.3183 23.0632Z" fill="#DA806C"/>
<path d="M36.9072 23.4201C36.9529 23.5164 36.9919 23.6159 37.0061 23.7235C37.0288 23.829 37.0263 23.9383 37.017 24.0476C37.0158 24.0609 37.0241 24.0731 37.0355 24.0745C37.0453 24.0758 37.0543 24.0687 37.0575 24.0582C37.0904 23.9462 37.0876 23.8238 37.0708 23.7078C37.0457 23.5937 37.0061 23.4807 36.9379 23.3939C36.9308 23.3847 36.9186 23.3843 36.9108 23.3927C36.9044 23.3996 36.9031 23.4111 36.9072 23.4201Z" fill="#DA806C"/>
<path d="M73.8487 79.1172C74.5609 78.8102 74.6639 78.5234 74.6639 78.5234L75.4233 79.6906C75.615 79.9568 75.8174 80.2731 75.7334 80.5687C75.677 80.7672 75.5028 80.9016 75.3343 81.0195C74.2967 81.7446 73.1416 82.3016 71.9904 82.8539C71.7443 82.972 71.4033 83.0721 71.2074 82.8564C71.0658 82.7004 71.0969 82.4691 71.158 82.2828C71.3278 81.7643 72.4167 79.8327 72.867 79.3018C72.867 79.3018 73.6064 79.2218 73.8487 79.1172Z" fill="#828282"/>
<path d="M71.1071 82.5911C71.2385 82.7538 72.0392 82.3437 72.0392 82.3437C73.4968 81.7447 75.6112 80.1419 75.6112 80.1419L75.6717 80.0977C75.7426 80.2542 75.7776 80.4153 75.7333 80.5705C75.6769 80.769 75.5028 80.9034 75.3342 81.0213C74.2967 81.7464 73.1415 82.3034 71.9903 82.8557C71.7442 82.9738 71.4032 83.0739 71.2074 82.8582C71.1465 82.7913 71.1088 82.6971 71.1004 82.612L71.1071 82.5911Z" fill="#E9F0F3"/>
<path d="M71.2231 28.2396C71.2231 28.2396 70.4244 25.99 67.6481 26.347C67.6481 26.347 65.879 26.3195 65.2529 27.8851L71.2231 28.2396Z" fill="#3C3C3B"/>
<path d="M66.2648 35.9098C66.7148 36.4581 67.2708 36.9391 67.934 37.1821C68.5973 37.4251 69.3781 37.403 69.9688 37.0133C70.2546 36.8247 70.5016 36.5518 70.8344 36.4745C71.3929 36.3451 71.9731 36.8164 72.5219 36.6501C72.9978 36.506 73.2237 35.9201 73.1447 35.4252C73.0657 34.9304 72.7641 34.5058 72.4807 34.094C72.1973 33.6822 71.9151 33.2374 71.8843 32.7371C71.8609 32.3588 71.9847 31.9894 72.0571 31.6175C72.3631 30.0445 71.4997 27.8264 70.1896 26.9197C69.1045 26.1688 66.2752 26.5049 65.5347 27.3701C64.3575 28.7456 64.625 33.9112 66.2648 35.9098Z" fill="black"/>
<path d="M67.0777 35.2446L67.1307 34.1842L69.157 34.0312L69.2045 35.2657C69.2045 35.2657 70.4109 35.5244 70.5476 35.5647C70.6282 35.5884 69.6642 37.7056 67.5393 37.4624C65.6145 37.242 65.8051 35.5355 65.806 35.536C65.8086 35.5377 66.6016 35.2923 67.0777 35.2446Z" fill="#F7C5B4"/>
<path d="M66.0841 68.8813C64.5564 66.575 63.1023 62.6081 62.7223 59.8603C62.5324 58.4878 62.4962 57.0989 62.4604 55.7135C62.4251 54.3538 62.39 52.992 62.4723 51.6343C62.5929 49.6479 62.7415 47.7499 63.7654 45.2109H70.697C72.6303 49.2683 73.3637 54.3118 72.8552 58.7845C72.3467 63.2572 70.8899 67.5711 69.1025 71.6959C69.0052 71.9201 68.8637 72.1437 68.7831 72.3745C67.7599 75.3002 66.3802 78.2122 65.1668 81.0629C65.1668 81.0629 64.6187 81.4838 63.8513 81.0424C63.0839 80.601 63.3904 80.2787 63.3904 80.2787C64.6702 76.8408 65.6066 72.7179 66.0664 69.0185L66.0841 68.8813Z" fill="black"/>
<path d="M68.7847 72.3719C70.4734 74.8064 71.5337 76.8192 72.7241 79.537C72.7241 79.537 73.3639 79.5061 73.7861 79.3187C74.2082 79.1312 74.6934 78.5836 74.6934 78.5836C73.6961 74.5652 73.0846 70.8673 70.7825 67.4375C70.7825 67.4375 69.9199 68.3581 69.3985 69.5749C68.8769 70.7916 68.7847 72.3719 68.7847 72.3719Z" fill="black"/>
<path d="M57.8419 51.5352L57.45 51.9206C57.195 52.1702 56.8908 52.7199 57.1577 52.8623C57.2576 52.8875 57.3072 52.8218 57.3513 52.766C57.2945 52.8962 57.2688 53.0373 57.2764 53.1769C57.2796 53.2336 57.2949 53.2993 57.352 53.3242C57.4331 53.3594 57.5193 53.285 57.5619 53.214C57.625 53.1087 57.6634 52.9917 57.6744 52.8727C57.61 53.056 57.5958 53.2532 57.6337 53.4421C57.6418 53.4821 57.6559 53.5265 57.6963 53.5452C57.7715 53.5798 57.846 53.4966 57.8755 53.4256C57.9546 53.2353 57.9935 53.0315 57.9894 52.8284C57.9199 53.0548 57.9091 53.2956 57.958 53.5263C57.9744 53.604 58.0192 53.697 58.1075 53.6993C58.2134 53.7017 58.2537 53.578 58.2604 53.4834C58.2737 53.301 58.2869 53.1187 58.3002 52.9363C58.3058 52.8589 58.3123 52.779 58.3528 52.7105C58.3933 52.6419 58.4781 52.588 58.5634 52.6023C58.5761 52.7764 58.8049 52.9077 58.9869 52.8455C59.0948 52.64 58.9983 52.3799 59.1143 52.1779" fill="#F7C5B4"/>
<path d="M66.1222 68.5959C66.3856 67.1504 66.5753 65.6944 66.7336 64.2353C66.894 62.7761 67.0071 61.3122 67.0956 59.8469C67.1335 59.1139 67.1684 58.3808 67.1941 57.6472C67.2128 56.9135 67.2356 56.1797 67.2363 55.4456C67.2462 53.9777 67.2199 52.5093 67.1269 51.043C67.0218 52.5084 66.9447 53.9715 66.8652 55.4341L66.6209 59.8192L66.3651 64.2038C66.2766 65.6658 66.1896 67.1286 66.1222 68.5959Z" fill="black"/>
<path d="M71.8899 57.3165C71.912 57.0321 71.9504 56.7497 72.0206 56.476C72.0858 56.2019 72.1742 55.9336 72.2935 55.6868C72.4121 55.4417 72.5621 55.2106 72.7434 55.0633L72.8119 55.0153C72.8349 55.0011 72.858 54.9919 72.8804 54.9789C72.9293 54.9559 72.9936 54.9326 73.0522 54.9169C73.1724 54.883 73.2978 54.8647 73.424 54.8621C73.6764 54.8547 73.9323 54.9116 74.1582 55.0232C74.3833 55.1296 74.59 55.3055 74.7082 55.5013C74.767 55.6005 74.809 55.723 74.8446 55.8575C74.8799 55.9939 74.8982 56.1401 74.926 56.2812C74.9844 56.5645 75.0362 56.8495 75.1009 57.1341L75.3955 57.1001C75.3729 56.8032 75.3374 56.5067 75.3083 56.2083C75.2876 56.0594 75.2779 55.9119 75.248 55.7616C75.2169 55.6105 75.1754 55.448 75.0942 55.2886C74.7468 54.6679 74.0673 54.37 73.4117 54.3832C73.2467 54.3889 73.0817 54.4149 72.9221 54.4624C72.8407 54.4863 72.7669 54.513 72.6842 54.5524C72.643 54.5748 72.5989 54.5955 72.561 54.6213L72.4528 54.7031C72.188 54.938 72.0256 55.2223 71.9082 55.5122C71.6732 56.0926 71.5825 56.7086 71.6185 57.3165H71.8899Z" fill="#7183DC"/>
<path d="M68.9569 64.8132C68.75 64.8383 68.5524 64.683 68.4448 64.4845C68.3373 64.2859 68.302 64.0503 68.272 63.8206C68.0487 62.1077 68.0041 60.3682 68.1 58.6405C68.1221 58.2438 68.1536 57.8382 68.302 57.4769C68.4506 57.1156 68.7668 56.804 69.1206 56.7567C71.8946 56.797 74.6701 56.7196 77.4389 56.5247C77.7678 56.5015 78.0999 56.5071 78.4294 56.513C78.7538 56.5188 79.1169 56.5523 79.3306 56.8246C79.4889 57.0261 79.5238 57.3102 79.5505 57.5766C79.7499 59.5698 79.8654 61.5732 79.897 63.5786C79.8998 63.7554 79.9007 63.9391 79.8354 64.1006C79.7701 64.2618 79.6183 64.3941 79.4619 64.365C76.1976 64.6026 72.9607 64.7729 69.6896 64.7757C69.4239 64.7759 69.2212 64.7812 68.9569 64.8132Z" fill="#7183DC"/>
<path d="M79.8428 61.3672C78.8607 61.3881 77.8808 61.4075 76.9017 61.4488C75.9224 61.484 74.944 61.5345 73.9657 61.5846C72.9877 61.6415 72.0099 61.6995 71.0326 61.7715L69.5669 61.8815C69.0783 61.9246 68.59 61.9617 68.0998 61.9934C69.0806 62.0708 70.0643 62.0681 71.0448 62.0523C72.0259 62.0376 73.0058 61.9947 73.9851 61.9442C74.964 61.8867 75.9426 61.821 76.9194 61.7283C77.8965 61.6396 78.8728 61.5267 79.8428 61.3672Z" fill="#90AFF1"/>
<path d="M73.0441 62.3758C73.2119 62.4696 74.4171 62.3837 74.9639 62.3196C74.9437 62.0024 74.9235 61.6304 74.9034 61.3131C74.9015 61.2841 74.8982 61.2517 74.8765 61.2327C74.8562 61.2148 74.8267 61.2144 74.7996 61.215C74.1936 61.2278 73.5877 61.2404 72.9817 61.2532C73.006 61.5932 73.02 62.0358 73.0441 62.3758Z" fill="#FCED6A"/>
<path d="M57.6823 51.5631C59.4227 46.9512 63.4347 38.3486 63.741 37.4947C64.0746 36.5643 64.8656 35.8138 65.8064 35.5352C65.8064 35.5352 65.9139 37.0324 67.3245 37.2379C68.735 37.4435 70.548 35.5638 70.548 35.5638C71.3925 35.6527 72.1463 36.1837 72.668 36.8595C73.19 37.5354 73.5068 38.3479 73.765 39.1641C75.0116 43.1031 75.4448 49.1421 74.7967 53.4317L74.7015 54.0603L73.1693 53.8237C73.4861 49.7598 72.6048 44.5394 71.635 41.2229C71.5917 41.3847 71.4446 41.7165 71.3985 41.8775C71.0636 43.0491 70.8808 44.2647 70.8562 45.4837C70.8562 45.4837 69.1311 45.9716 67.4688 46.0302C65.8064 46.0888 63.893 45.6987 63.7651 45.2109C63.6374 44.7232 63.7651 42.5454 63.7651 42.5454C62.7741 46.3041 59.1781 52.3117 59.1376 52.3912L57.6823 51.5631Z" fill="#5E9D48"/>
<path d="M73.2521 53.8359C73.2521 53.8359 73.2168 54.0334 73.1355 54.133C73.0449 54.2438 72.9534 54.3561 72.8939 54.4864C72.8342 54.6168 72.7429 54.8074 72.7899 54.9429C72.7468 55.0841 72.8455 55.265 72.9919 55.2652C73.0436 55.2652 73.1022 55.2463 73.1425 55.2791C73.1956 55.3224 73.1655 55.4116 73.1952 55.4737C73.2575 55.6037 73.4926 55.5052 73.5794 55.6199C73.6104 55.6608 73.6214 55.7275 73.6716 55.7371C73.7001 55.7425 73.7274 55.725 73.7552 55.7167C73.8573 55.6862 73.951 55.7772 74.0496 55.8173C74.2223 55.8878 74.4276 55.7913 74.5378 55.6397C74.6479 55.488 74.683 55.2948 74.7041 55.1081C74.742 54.7714 74.6778 54.4069 74.6574 54.053L73.2521 53.8359Z" fill="#F7C5B4"/>
<path d="M64.4419 38.9102C64.3424 39.1654 64.2707 39.4305 64.2054 39.6961C64.1402 39.9619 64.0915 40.2311 64.0409 40.4999C64.0006 40.7704 63.9591 41.0407 63.9338 41.3135C63.9087 41.5859 63.8899 41.86 63.9009 42.1341C63.9412 41.8632 63.9834 41.5946 64.028 41.3259C64.0728 41.0575 64.1132 40.7883 64.1626 40.5208C64.2028 40.2516 64.253 39.9841 64.298 39.7157C64.3437 39.447 64.3915 39.1794 64.4419 38.9102Z" fill="#7183DC"/>
<path d="M64.2452 80.7995C64.9792 81.0488 65.2446 80.9035 65.2446 80.9035L65.0449 82.286C65.0131 82.6138 64.9566 82.9863 64.6995 83.1505C64.5269 83.2609 64.3085 83.2443 64.1052 83.2191C62.8535 83.0637 61.6241 82.7037 60.4008 82.3429C60.1394 82.2659 59.8189 82.1114 59.8142 81.8187C59.8109 81.6067 59.9862 81.4549 60.1544 81.3568C60.622 81.0834 62.7053 80.3715 63.3906 80.2773C63.3904 80.2777 63.9954 80.7148 64.2452 80.7995Z" fill="#828282"/>
<path d="M59.9163 81.5508C59.9075 81.7608 60.7753 81.9922 60.7753 81.9922C62.2581 82.524 64.8915 82.747 64.8915 82.747L64.9658 82.7545C64.916 82.9192 64.8363 83.0629 64.7011 83.1494C64.5284 83.2598 64.31 83.2432 64.1067 83.2179C62.8551 83.0625 61.6256 82.7025 60.4024 82.3418C60.141 82.2647 59.8205 82.1103 59.8158 81.8175C59.8143 81.7267 59.8479 81.631 59.8976 81.5617L59.9163 81.5508Z" fill="#E9F0F3"/>
<path d="M65.2778 28.2414C65.0686 29.3901 65.3695 31.701 65.6144 32.614C65.7139 32.9851 65.8211 33.3689 66.0581 33.6699C67.2297 35.1568 68.7896 34.6853 69.3022 34.3447C69.7045 34.0774 70.0246 33.7106 70.2098 33.2621C70.6823 32.1173 70.8757 30.8563 70.7678 29.6209C70.7678 29.6209 71.0827 26.5489 68.0901 26.5514C68.0901 26.5514 65.6273 26.3233 65.2778 28.2414Z" fill="#F7C5B4"/>
<path d="M66.2436 31.2168C66.2551 31.32 66.3473 31.3941 66.4495 31.3826C66.5518 31.3709 66.6251 31.2778 66.6135 31.1746C66.602 31.0716 66.5098 30.9973 66.4076 31.009C66.3055 31.0205 66.232 31.1136 66.2436 31.2168Z" fill="#3C3C3B"/>
<path d="M69.1947 31.2363C69.2063 31.3396 69.2985 31.4136 69.4006 31.4021C69.5027 31.3906 69.5763 31.2974 69.5647 31.1941C69.5531 31.0911 69.4609 31.0169 69.3588 31.0286C69.2567 31.0402 69.1832 31.1333 69.1947 31.2363Z" fill="#3C3C3B"/>
<path d="M66.8204 30.4774C66.4506 30.3444 66.0006 30.4393 65.7174 30.7166C65.7009 30.7326 65.7006 30.7592 65.7164 30.7757C65.7304 30.7903 65.7525 30.7921 65.7687 30.7818C66.0765 30.5844 66.4389 30.5007 66.8021 30.5514C66.8229 30.5544 66.8423 30.5399 66.8453 30.519C66.8481 30.5007 66.8371 30.4834 66.8204 30.4774Z" fill="#3C3C3B"/>
<path d="M68.8329 30.6885C69.1816 30.5738 69.5529 30.5919 69.8902 30.7315C69.9113 30.7405 69.9356 30.7304 69.9445 30.7091C69.9524 30.6904 69.9454 30.6691 69.9294 30.658C69.6022 30.4354 69.1426 30.422 68.8017 30.6187C68.7834 30.6292 68.7772 30.6526 68.7875 30.671C68.797 30.6872 68.8162 30.694 68.8329 30.6885Z" fill="#3C3C3B"/>
<path d="M67.9942 30.4208C68.0737 30.8256 68.05 31.2416 68.0778 31.6519C68.0791 31.672 68.0802 31.6935 68.0692 31.7118C68.0457 31.7502 67.9837 31.7551 67.9326 31.7545C67.8551 31.754 67.7778 31.7532 67.7005 31.7525C67.6593 31.7521 67.6117 31.7491 67.5885 31.721C67.5747 31.7042 67.5732 31.6824 67.5725 31.6619C67.5574 31.2632 67.5867 30.8629 67.6598 30.4673C67.6671 30.4282 67.6755 30.3875 67.7031 30.3551C67.7431 30.3083 67.8224 30.2882 67.885 30.3089C67.885 30.3089 67.9774 30.3347 67.9942 30.4208Z" fill="#EFA686"/>
<path d="M70.9635 30.898C70.1345 29.9817 69.5915 28.7836 69.4369 27.5292C68.9594 28.6621 67.8619 29.4818 66.6943 29.6472C66.7217 29.449 66.7493 29.2506 66.7768 29.0525C66.4254 29.6101 65.8652 30.0179 65.2451 30.1671C64.5324 28.1554 65.8621 26.8776 66.5154 26.6968C71.9161 25.2012 71.1608 30.5524 70.9635 30.898Z" fill="black"/>
<path d="M70.6913 31.4987C70.7826 31.6243 70.9571 31.6818 71.1046 31.6345C71.2196 31.5976 71.3096 31.5074 71.3848 31.4122C71.5833 31.1617 71.7139 30.8326 71.6422 30.5204C71.6245 30.4428 71.5928 30.3654 71.5336 30.3125C71.4354 30.2245 71.2818 30.2254 71.1621 30.2804C71.0426 30.3354 70.8326 30.5572 70.7173 30.6787L70.6913 31.4987Z" fill="#F7C5B4"/>
<path d="M71.3569 30.5554C71.2156 30.5953 71.0894 30.6793 70.9812 30.7792C70.8787 30.8848 70.7913 31.0099 70.7478 31.1516C70.7445 31.1625 70.7506 31.1742 70.7614 31.1776C70.7713 31.1806 70.7816 31.1759 70.7861 31.1668C70.8479 31.0404 70.9248 30.9218 71.0269 30.8266C71.1232 30.7253 71.2429 30.6505 71.3698 30.5912C71.3793 30.5868 71.3835 30.5755 71.3792 30.5659C71.3752 30.5572 71.3657 30.5529 71.3569 30.5554Z" fill="#DA806C"/>
<path d="M70.9524 30.8648C70.9983 30.9463 71.0381 31.0307 71.053 31.1221C71.0764 31.2118 71.0751 31.3048 71.067 31.3979C71.0659 31.4094 71.0743 31.4195 71.0857 31.4207C71.0954 31.4216 71.1042 31.4154 71.1074 31.4065C71.1389 31.3109 71.135 31.2065 71.1173 31.1078C71.0913 31.0109 71.0512 30.9151 70.9828 30.842C70.9756 30.8342 70.9636 30.8339 70.956 30.8412C70.9493 30.8474 70.9481 30.8572 70.9524 30.8648Z" fill="#DA806C"/>
<path d="M32.4117 84.5015C21.4545 84.5015 12.5719 83.8847 12.5719 83.1238C12.5719 82.3629 21.4545 81.7461 32.4117 81.7461C43.3689 81.7461 52.2515 82.3629 52.2515 83.1238C52.2515 83.8847 43.3689 84.5015 32.4117 84.5015Z" fill="#94B38A"/>
</svg>
